<svg version="1.1" id="Layer_1" xmlns="http://www.w3.org/2000/svg" xmlns:xlink="http://www.w3.org/1999/xlink" x="0px" y="0px"
	 width="100%" viewBox="0 0 56 63" enable-background="new 0 0 56 63" xml:space="preserve">
<path fill="#000000" opacity="1.000000" stroke="none" 
	d="
M57.000000,30.000000 
	C57.000000,33.030594 57.000000,36.061188 56.649811,39.816372 
	C53.776772,39.443146 51.584511,39.626881 49.535728,42.096397 
	C38.771832,42.026749 28.472065,42.026749 18.172298,42.026749 
	C18.186842,42.684875 18.201387,43.342999 18.215931,44.001125 
	C28.754980,44.001125 39.294029,44.001125 49.994671,44.323269 
	C52.437508,45.096943 54.718754,45.548473 57.000000,46.000000 
	C57.000000,51.961792 57.000000,57.923580 57.000000,63.942688 
	C38.333454,63.942688 19.666748,63.942688 1.000000,63.942688 
	C1.000000,62.649601 1.000000,61.324760 1.375673,59.244476 
	C3.096498,58.992241 4.435434,59.910881 5.787815,59.931118 
	C14.445411,60.060673 23.106133,60.015526 31.765226,59.949406 
	C32.501507,59.943783 33.233410,59.365284 33.967346,59.052914 
	C25.350382,57.998470 16.913572,57.910694 8.480285,58.044609 
	C5.399895,58.093529 3.893866,57.290382 3.946555,53.861549 
	C4.100060,43.872070 3.879388,33.875736 4.122928,23.889837 
	C4.162666,22.260439 5.424584,20.112623 6.788859,19.157278 
	C13.190545,14.674457 19.808220,10.497739 26.396858,6.286963 
	C27.298935,5.710449 28.822824,4.942733 29.459724,5.308042 
	C33.069546,7.378531 36.496971,9.767018 39.594917,12.029148 
	C34.004276,13.493149 33.509743,15.099947 37.000679,19.618645 
	C37.000092,23.641218 37.000092,27.211040 37.000092,31.492432 
	C31.913101,31.492432 27.528790,31.492432 23.144478,31.492432 
	C36.213650,35.728119 39.000244,33.771954 39.000122,21.155767 
	C39.000114,20.492823 39.000057,19.829876 39.311516,19.015102 
	C43.046345,16.699465 41.362408,14.332061 40.279694,11.991800 
	C42.641922,12.708276 44.622112,13.406344 46.602303,14.104413 
	C46.861160,13.573402 47.120018,13.042392 47.378876,12.511380 
	C43.543236,10.332302 39.619923,8.290663 35.905655,5.921320 
	C33.762680,4.554312 31.957317,2.658050 30.000000,1.000000 
	C38.925030,1.000000 47.850056,1.000000 57.000000,1.000000 
	C57.000000,9.352880 57.000000,17.707775 56.741894,26.860657 
	C56.085945,27.371910 55.687054,27.086617 55.290440,26.798189 
	C53.380474,25.409206 51.256199,24.027664 49.749550,26.958712 
	C49.165249,28.095415 49.809963,29.863871 49.894798,31.344534 
	C51.783936,30.917904 53.669739,30.475435 55.564602,30.075972 
	C56.027821,29.978319 56.520737,30.021547 57.000000,30.000000 
M44.136501,57.622105 
	C45.499481,58.172638 46.930153,59.263077 48.204082,59.103355 
	C49.228233,58.974949 50.544254,57.453506 50.826756,56.324066 
	C51.047344,55.442150 49.751259,53.249191 49.351109,53.302582 
	C47.469639,53.553612 45.664803,54.378998 42.995377,54.992378 
	C41.992077,52.802494 40.988777,50.612610 40.054558,48.573509 
	C34.593357,48.573509 28.882961,48.573509 23.172565,48.573509 
	C23.179890,48.984024 23.187214,49.394539 23.194536,49.805054 
	C28.320499,49.805054 33.446461,49.805054 38.757118,49.805054 
	C38.943645,52.519341 39.086983,54.605179 39.251579,57.000362 
	C40.913864,57.000362 42.373428,57.000362 44.136501,57.622105 
M23.742683,39.000065 
	C32.945145,38.691265 42.228603,39.649189 51.289230,37.596458 
	C40.588627,37.596458 29.888021,37.596458 19.187416,37.596458 
	C19.174538,37.929882 19.161659,38.263302 19.148781,38.596725 
	C20.367853,38.731068 21.586927,38.865406 23.742683,39.000065 
z"/>
<path fill="#0C68F3" opacity="1.000000" stroke="none" 
	d="
M29.625000,1.000000 
	C31.957317,2.658050 33.762680,4.554312 35.905655,5.921320 
	C39.619923,8.290663 43.543236,10.332302 47.378876,12.511380 
	C47.120018,13.042392 46.861160,13.573402 46.602303,14.104413 
	C44.622112,13.406344 42.641922,12.708276 40.288666,12.026396 
	C39.915600,12.042584 39.986488,12.047256 39.986488,12.047256 
	C36.496971,9.767018 33.069546,7.378531 29.459724,5.308042 
	C28.822824,4.942733 27.298935,5.710449 26.396858,6.286963 
	C19.808220,10.497739 13.190545,14.674457 6.788859,19.157278 
	C5.424584,20.112623 4.162666,22.260439 4.122928,23.889837 
	C3.879388,33.875736 4.100060,43.872070 3.946555,53.861549 
	C3.893866,57.290382 5.399895,58.093529 8.480285,58.044609 
	C16.913572,57.910694 25.350382,57.998470 33.967346,59.052914 
	C33.233410,59.365284 32.501507,59.943783 31.765226,59.949406 
	C23.106133,60.015526 14.445411,60.060673 5.787815,59.931118 
	C4.435434,59.910881 3.096498,58.992241 1.375673,58.744514 
	C1.000000,45.979103 1.000000,32.958210 1.248832,19.797325 
	C8.113285,15.191607 14.783279,10.803265 21.312956,6.215221 
	C23.399817,4.748899 25.114841,2.753384 27.000000,1.000000 
	C27.750000,1.000000 28.500000,1.000000 29.625000,1.000000 
z"/>
<path fill="#000000" opacity="1.000000" stroke="none" 
	d="
M26.531334,1.000000 
	C25.114841,2.753384 23.399817,4.748899 21.312956,6.215221 
	C14.783279,10.803265 8.113285,15.191607 1.248832,19.328667 
	C1.000000,13.060322 1.000000,7.120644 1.000000,1.000000 
	C9.353558,1.000000 17.708113,1.000000 26.531334,1.000000 
z"/>
<path fill="#F35D0C" opacity="1.000000" stroke="none" 
	d="
M57.000000,29.625000 
	C56.520737,30.021547 56.027821,29.978319 55.564602,30.075972 
	C53.669739,30.475435 51.783936,30.917904 49.894798,31.344534 
	C49.809963,29.863871 49.165249,28.095415 49.749550,26.958712 
	C51.256199,24.027664 53.380474,25.409206 55.290440,26.798189 
	C55.687054,27.086617 56.085945,27.371910 56.741894,27.329323 
	C57.000000,27.750000 57.000000,28.500000 57.000000,29.625000 
z"/>
<path fill="#F35D0C" opacity="1.000000" stroke="none" 
	d="
M49.999859,42.166050 
	C51.584511,39.626881 53.776772,39.443146 56.649811,40.270481 
	C57.000000,41.714359 57.000000,43.428715 57.000000,45.571541 
	C54.718754,45.548473 52.437508,45.096943 50.068317,44.023323 
	C49.986870,42.989502 49.993366,42.577778 49.999859,42.166050 
z"/>
<path fill="#0A68F5" opacity="1.000000" stroke="none" 
	d="
M23.274342,38.999908 
	C21.586927,38.865406 20.367853,38.731068 19.148781,38.596725 
	C19.161659,38.263302 19.174538,37.929882 19.187416,37.596458 
	C29.888021,37.596458 40.588627,37.596458 51.289230,37.596458 
	C42.228603,39.649189 32.945145,38.691265 23.274342,38.999908 
z"/>
<path fill="#0B68F3" opacity="1.000000" stroke="none" 
	d="
M49.535728,42.096397 
	C49.993366,42.577778 49.986870,42.989502 49.906727,43.701180 
	C39.294029,44.001125 28.754980,44.001125 18.215931,44.001125 
	C18.201387,43.342999 18.186842,42.684875 18.172298,42.026749 
	C28.472065,42.026749 38.771832,42.026749 49.535728,42.096397 
z"/>
<path fill="#0B68F3" opacity="1.000000" stroke="none" 
	d="
M43.832993,57.000362 
	C42.373428,57.000362 40.913864,57.000362 39.251579,57.000362 
	C39.086983,54.605179 38.943645,52.519341 38.757118,49.805054 
	C33.446461,49.805054 28.320499,49.805054 23.194536,49.805054 
	C23.187214,49.394539 23.179890,48.984024 23.172565,48.573509 
	C28.882961,48.573509 34.593357,48.573509 40.054558,48.573509 
	C40.988777,50.612610 41.992077,52.802494 43.486504,55.326756 
	C43.929417,56.107544 43.881207,56.553951 43.832993,57.000362 
z"/>
<path fill="#0C68F3" opacity="1.000000" stroke="none" 
	d="
M39.000027,19.166931 
	C39.000057,19.829876 39.000114,20.492823 39.000122,21.155767 
	C39.000244,33.771954 36.213650,35.728119 23.144478,31.492432 
	C27.528790,31.492432 31.913101,31.492432 37.000092,31.492432 
	C37.000092,27.211040 37.000092,23.641218 37.331245,19.546612 
	C38.108276,19.070196 38.554153,19.118563 39.000027,19.166931 
z"/>
<path fill="#F35D0B" opacity="1.000000" stroke="none" 
	d="
M39.311516,19.015102 
	C38.554153,19.118563 38.108276,19.070196 37.331833,19.093861 
	C33.509743,15.099947 34.004276,13.493149 39.594917,12.029148 
	C39.986488,12.047256 39.915600,12.042584 39.906631,12.007990 
	C41.362408,14.332061 43.046345,16.699465 39.311516,19.015102 
z"/>
<path fill="#F45E0C" opacity="1.000000" stroke="none" 
	d="
M43.984749,57.311234 
	C43.881207,56.553951 43.929417,56.107544 43.905121,55.330261 
	C45.664803,54.378998 47.469639,53.553612 49.351109,53.302582 
	C49.751259,53.249191 51.047344,55.442150 50.826756,56.324066 
	C50.544254,57.453506 49.228233,58.974949 48.204082,59.103355 
	C46.930153,59.263077 45.499481,58.172638 43.984749,57.311234 
z"/>
</svg>