<svg width="40" height="40" viewBox="0 0 40 40" fill="none" xmlns="http://www.w3.org/2000/svg">
<path d="M13.1909 14.3799C13.0009 14.3799 12.8009 14.2999 12.6609 14.1599C12.3709 13.8699 12.3709 13.3899 12.6609 13.0999L16.2909 9.46994C16.5809 9.17994 17.0609 9.17994 17.3509 9.46994C17.6409 9.75994 17.6409 10.2399 17.3509 10.5299L13.7209 14.1599C13.5709 14.2999 13.3809 14.3799 13.1909 14.3799Z" fill="#0C0C0C"/>
<path d="M26.8091 14.3799C26.6191 14.3799 26.4291 14.3099 26.2791 14.1599L22.6491 10.5299C22.3591 10.2399 22.3591 9.75994 22.6491 9.46994C22.9391 9.17994 23.4191 9.17994 23.7091 9.46994L27.3391 13.0999C27.6291 13.3899 27.6291 13.8699 27.3391 14.1599C27.1991 14.2999 26.9991 14.3799 26.8091 14.3799Z" fill="#0C0C0C"/>
<path d="M28.21 18.6001C28.14 18.6001 28.07 18.6001 28 18.6001H27.77H12C11.3 18.6101 10.5 18.6101 9.92 18.0301C9.46 17.5801 9.25 16.8801 9.25 15.8501C9.25 13.1001 11.26 13.1001 12.22 13.1001H27.78C28.74 13.1001 30.75 13.1001 30.75 15.8501C30.75 16.8901 30.54 17.5801 30.08 18.0301C29.56 18.5501 28.86 18.6001 28.21 18.6001ZM12.22 17.1001H28.01C28.46 17.1101 28.88 17.1101 29.02 16.9701C29.09 16.9001 29.24 16.6601 29.24 15.8501C29.24 14.7201 28.96 14.6001 27.77 14.6001H12.22C11.03 14.6001 10.75 14.7201 10.75 15.8501C10.75 16.6601 10.91 16.9001 10.97 16.9701C11.11 17.1001 11.54 17.1001 11.98 17.1001H12.22Z" fill="#0C0C0C"/>
<path d="M17.7598 26.3C17.3498 26.3 17.0098 25.96 17.0098 25.55V22C17.0098 21.59 17.3498 21.25 17.7598 21.25C18.1698 21.25 18.5098 21.59 18.5098 22V25.55C18.5098 25.97 18.1698 26.3 17.7598 26.3Z" fill="#0C0C0C"/>
<path d="M22.3594 26.3C21.9494 26.3 21.6094 25.96 21.6094 25.55V22C21.6094 21.59 21.9494 21.25 22.3594 21.25C22.7694 21.25 23.1094 21.59 23.1094 22V25.55C23.1094 25.97 22.7694 26.3 22.3594 26.3Z" fill="#0C0C0C"/>
<path d="M22.8907 30.75H16.8607C13.2807 30.75 12.4807 28.62 12.1707 26.77L10.7607 18.12C10.6907 17.71 10.9707 17.33 11.3807 17.26C11.7907 17.19 12.1707 17.47 12.2407 17.88L13.6507 26.52C13.9407 28.29 14.5407 29.25 16.8607 29.25H22.8907C25.4607 29.25 25.7507 28.35 26.0807 26.61L27.7607 17.86C27.8407 17.45 28.2307 17.18 28.6407 17.27C29.0507 17.35 29.3107 17.74 29.2307 18.15L27.5507 26.9C27.1607 28.93 26.5107 30.75 22.8907 30.75Z" fill="#0C0C0C"/>
</svg>
