<svg width="49" height="48" viewBox="0 0 49 48" fill="none" xmlns="http://www.w3.org/2000/svg">
<path d="M35.4 45.5C33.14 45.5 30.76 44.96 28.3 43.92C25.9 42.9 23.48 41.5 21.12 39.8C18.78 38.08 16.52 36.16 14.38 34.06C12.26 31.92 10.34 29.66 8.64 27.34C6.92 24.94 5.54 22.54 4.56 20.22C3.52 17.74 3 15.34 3 13.08C3 11.52 3.28 10.04 3.82 8.66C4.38 7.24 5.28 5.92 6.5 4.78C8.04 3.26 9.8 2.5 11.68 2.5C12.46 2.5 13.26 2.68 13.94 3C14.72 3.36 15.38 3.9 15.86 4.62L20.5 11.16C20.92 11.74 21.24 12.3 21.46 12.86C21.72 13.46 21.86 14.06 21.86 14.64C21.86 15.4 21.64 16.14 21.22 16.84C20.92 17.38 20.46 17.96 19.88 18.54L18.52 19.96C18.54 20.02 18.56 20.06 18.58 20.1C18.82 20.52 19.3 21.24 20.22 22.32C21.2 23.44 22.12 24.46 23.04 25.4C24.22 26.56 25.2 27.48 26.12 28.24C27.26 29.2 28 29.68 28.44 29.9L28.4 30L29.86 28.56C30.48 27.94 31.08 27.48 31.66 27.18C32.76 26.5 34.16 26.38 35.56 26.96C36.08 27.18 36.64 27.48 37.24 27.9L43.88 32.62C44.62 33.12 45.16 33.76 45.48 34.52C45.78 35.28 45.92 35.98 45.92 36.68C45.92 37.64 45.7 38.6 45.28 39.5C44.86 40.4 44.34 41.18 43.68 41.9C42.54 43.16 41.3 44.06 39.86 44.64C38.48 45.2 36.98 45.5 35.4 45.5ZM11.68 5.5C10.58 5.5 9.56 5.98 8.58 6.94C7.66 7.8 7.02 8.74 6.62 9.76C6.2 10.8 6 11.9 6 13.08C6 14.94 6.44 16.96 7.32 19.04C8.22 21.16 9.48 23.36 11.08 25.56C12.68 27.76 14.5 29.9 16.5 31.92C18.5 33.9 20.66 35.74 22.88 37.36C25.04 38.94 27.26 40.22 29.46 41.14C32.88 42.6 36.08 42.94 38.72 41.84C39.74 41.42 40.64 40.78 41.46 39.86C41.92 39.36 42.28 38.82 42.58 38.18C42.82 37.68 42.94 37.16 42.94 36.64C42.94 36.32 42.88 36 42.72 35.64C42.66 35.52 42.54 35.3 42.16 35.04L35.52 30.32C35.12 30.04 34.76 29.84 34.42 29.7C33.98 29.52 33.8 29.34 33.12 29.76C32.72 29.96 32.36 30.26 31.96 30.66L30.44 32.16C29.66 32.92 28.46 33.1 27.54 32.76L27 32.52C26.18 32.08 25.22 31.4 24.16 30.5C23.2 29.68 22.16 28.72 20.9 27.48C19.92 26.48 18.94 25.42 17.92 24.24C16.98 23.14 16.3 22.2 15.88 21.42L15.64 20.82C15.52 20.36 15.48 20.1 15.48 19.82C15.48 19.1 15.74 18.46 16.24 17.96L17.74 16.4C18.14 16 18.44 15.62 18.64 15.28C18.8 15.02 18.86 14.8 18.86 14.6C18.86 14.44 18.8 14.2 18.7 13.96C18.56 13.64 18.34 13.28 18.06 12.9L13.42 6.34C13.22 6.06 12.98 5.86 12.68 5.72C12.36 5.58 12.02 5.5 11.68 5.5ZM28.4 30.02L28.08 31.38L28.62 29.98C28.52 29.96 28.44 29.98 28.4 30.02Z" fill="#0C68F4"/>
<path d="M42.5004 17.1H32.9004C32.0804 17.1 31.4004 16.42 31.4004 15.6V6C31.4004 5.18 32.0804 4.5 32.9004 4.5C33.7204 4.5 34.4004 5.18 34.4004 6V14.1H42.5004C43.3204 14.1 44.0004 14.78 44.0004 15.6C44.0004 16.42 43.3204 17.1 42.5004 17.1Z" fill="#0C68F4"/>
</svg>
