<svg width="49" height="48" viewBox="0 0 49 48" fill="none" xmlns="http://www.w3.org/2000/svg">
<path d="M30 23.5H19C18.18 23.5 17.5 22.82 17.5 22C17.5 21.18 18.18 20.5 19 20.5H30C30.82 20.5 31.5 21.18 31.5 22C31.5 22.82 30.82 23.5 30 23.5Z" fill="#0C68F4"/>
<path d="M24.5 29C23.68 29 23 28.32 23 27.5V16.5C23 15.68 23.68 15 24.5 15C25.32 15 26 15.68 26 16.5V27.5C26 28.32 25.32 29 24.5 29Z" fill="#0C68F4"/>
<path d="M24.4994 45.52C21.5394 45.52 18.5594 44.4 16.2394 42.18C10.3394 36.5 3.81938 27.44 6.27938 16.66C8.49938 6.88 17.0394 2.5 24.4994 2.5C24.4994 2.5 24.4994 2.5 24.5194 2.5C31.9794 2.5 40.5194 6.88 42.7394 16.68C45.1794 27.46 38.6594 36.5 32.7594 42.18C30.4394 44.4 27.4594 45.52 24.4994 45.52ZM24.4994 5.5C18.6794 5.5 11.1994 8.6 9.21938 17.32C7.05938 26.74 12.9794 34.86 18.3394 40C21.7994 43.34 27.2194 43.34 30.6794 40C36.0194 34.86 41.9394 26.74 39.8194 17.32C37.8194 8.6 30.3194 5.5 24.4994 5.5Z" fill="#0C68F4"/>
</svg>
