<svg width="20" height="20" viewBox="0 0 20 20" fill="none" xmlns="http://www.w3.org/2000/svg">
<path d="M9.99967 18.9583C5.63301 18.9583 2.08301 15.4083 2.08301 11.0417C2.08301 6.675 5.63301 3.125 9.99967 3.125C14.3663 3.125 17.9163 6.675 17.9163 11.0417C17.9163 15.4083 14.3663 18.9583 9.99967 18.9583ZM9.99967 4.375C6.32467 4.375 3.33301 7.36667 3.33301 11.0417C3.33301 14.7167 6.32467 17.7083 9.99967 17.7083C13.6747 17.7083 16.6663 14.7167 16.6663 11.0417C16.6663 7.36667 13.6747 4.375 9.99967 4.375Z" fill="#717171"/>
<path d="M10 11.4584C9.65833 11.4584 9.375 11.1751 9.375 10.8334V6.66675C9.375 6.32508 9.65833 6.04175 10 6.04175C10.3417 6.04175 10.625 6.32508 10.625 6.66675V10.8334C10.625 11.1751 10.3417 11.4584 10 11.4584Z" fill="#717171"/>
<path d="M12.5 2.29175H7.5C7.15833 2.29175 6.875 2.00841 6.875 1.66675C6.875 1.32508 7.15833 1.04175 7.5 1.04175H12.5C12.8417 1.04175 13.125 1.32508 13.125 1.66675C13.125 2.00841 12.8417 2.29175 12.5 2.29175Z" fill="#717171"/>
</svg>
