<svg width="516" height="93" viewBox="0 0 516 93" fill="none" xmlns="http://www.w3.org/2000/svg">
<path d="M352 36H408" stroke="#9E9E9E" stroke-width="1.5" stroke-linecap="round"/>
<rect x="410" y="12" width="48" height="48" rx="24" fill="#9E9E9E"/>
<path d="M447.333 32.3333H420.666C420.119 32.3333 419.666 31.8799 419.666 31.3333C419.666 30.7866 420.119 30.3333 420.666 30.3333H447.333C447.879 30.3333 448.333 30.7866 448.333 31.3333C448.333 31.8799 447.879 32.3333 447.333 32.3333Z" fill="white"/>
<path d="M428.667 43H426C425.453 43 425 42.5467 425 42C425 41.4533 425.453 41 426 41H428.667C429.213 41 429.667 41.4533 429.667 42C429.667 42.5467 429.213 43 428.667 43Z" fill="white"/>
<path d="M437.333 43H432C431.453 43 431 42.5467 431 42C431 41.4533 431.453 41 432 41H437.333C437.88 41 438.333 41.4533 438.333 42C438.333 42.5467 437.88 43 437.333 43Z" fill="white"/>
<path d="M441.413 48.3334H426.586C421.279 48.3334 419.666 46.7334 419.666 41.4801V30.5201C419.666 25.2667 421.279 23.6667 426.586 23.6667H441.399C446.706 23.6667 448.319 25.2667 448.319 30.5201V41.4667C448.333 46.7334 446.719 48.3334 441.413 48.3334ZM426.586 25.6667C422.399 25.6667 421.666 26.3867 421.666 30.5201V41.4667C421.666 45.6001 422.399 46.3201 426.586 46.3201H441.399C445.586 46.3201 446.319 45.6001 446.319 41.4667V30.5201C446.319 26.3867 445.586 25.6667 441.399 25.6667H426.586Z" fill="white"/>
<path d="M405.779 78V67.8182H409.408C410.2 67.8182 410.856 67.9624 411.377 68.2507C411.897 68.5391 412.287 68.9335 412.545 69.4339C412.804 69.9311 412.933 70.4912 412.933 71.1143C412.933 71.7408 412.802 72.3042 412.54 72.8047C412.282 73.3018 411.891 73.6963 411.367 73.9879C410.846 74.2763 410.192 74.4205 409.403 74.4205H406.907V73.1179H409.264C409.764 73.1179 410.17 73.0317 410.482 72.8594C410.793 72.6837 411.022 72.4451 411.168 72.1435C411.314 71.8419 411.387 71.4988 411.387 71.1143C411.387 70.7299 411.314 70.3885 411.168 70.0902C411.022 69.7919 410.792 69.5582 410.477 69.3892C410.165 69.2202 409.754 69.1357 409.244 69.1357H407.315V78H405.779ZM416.768 78.169C416.285 78.169 415.847 78.0795 415.456 77.9006C415.065 77.7183 414.755 77.4548 414.526 77.1101C414.301 76.7654 414.188 76.3428 414.188 75.8423C414.188 75.4115 414.271 75.0568 414.437 74.7784C414.603 74.5 414.826 74.2796 415.108 74.1172C415.39 73.9548 415.705 73.8321 416.053 73.7493C416.401 73.6664 416.755 73.6035 417.116 73.5604C417.574 73.5073 417.945 73.4643 418.23 73.4311C418.515 73.3946 418.722 73.3366 418.852 73.2571C418.981 73.1776 419.045 73.0483 419.045 72.8693V72.8345C419.045 72.4003 418.923 72.0639 418.678 71.8253C418.436 71.5866 418.074 71.4673 417.594 71.4673C417.093 71.4673 416.699 71.5784 416.411 71.8004C416.125 72.0192 415.928 72.2628 415.819 72.5312L414.422 72.2131C414.588 71.7491 414.83 71.3745 415.148 71.0895C415.469 70.8011 415.839 70.5923 416.256 70.4631C416.674 70.3305 417.113 70.2642 417.574 70.2642C417.879 70.2642 418.202 70.3007 418.543 70.3736C418.888 70.4432 419.21 70.5724 419.508 70.7614C419.809 70.9503 420.056 71.2204 420.249 71.5717C420.441 71.9197 420.537 72.3722 420.537 72.929V78H419.085V76.956H419.026C418.929 77.1482 418.785 77.3371 418.593 77.5227C418.401 77.7083 418.154 77.8625 417.852 77.9851C417.551 78.1077 417.189 78.169 416.768 78.169ZM417.092 76.9759C417.503 76.9759 417.854 76.8946 418.146 76.7322C418.441 76.5698 418.664 76.3577 418.817 76.0959C418.973 75.8307 419.05 75.5473 419.05 75.2457V74.2614C418.997 74.3144 418.895 74.3641 418.742 74.4105C418.593 74.4536 418.422 74.4917 418.23 74.5249C418.038 74.5547 417.851 74.5829 417.668 74.6094C417.486 74.6326 417.334 74.6525 417.211 74.669C416.923 74.7055 416.659 74.7668 416.42 74.853C416.185 74.9392 415.996 75.0634 415.854 75.2259C415.714 75.3849 415.645 75.5971 415.645 75.8622C415.645 76.2301 415.781 76.5085 416.053 76.6974C416.324 76.883 416.671 76.9759 417.092 76.9759ZM423.183 80.8636C422.961 80.8636 422.759 80.8454 422.577 80.8089C422.394 80.7758 422.258 80.7393 422.169 80.6996L422.527 79.4815C422.799 79.5545 423.041 79.5859 423.253 79.576C423.465 79.5661 423.652 79.4865 423.814 79.3374C423.98 79.1882 424.126 78.9446 424.252 78.6065L424.436 78.0994L421.642 70.3636H423.233L425.167 76.2898H425.246L427.18 70.3636H428.776L425.629 79.0192C425.483 79.4169 425.298 79.7533 425.072 80.0284C424.847 80.3068 424.578 80.5156 424.267 80.6548C423.955 80.794 423.594 80.8636 423.183 80.8636ZM430.173 78V70.3636H431.6V71.6065H431.694C431.854 71.1856 432.114 70.8575 432.475 70.6222C432.836 70.3835 433.269 70.2642 433.773 70.2642C434.283 70.2642 434.711 70.3835 435.055 70.6222C435.403 70.8608 435.66 71.1889 435.826 71.6065H435.905C436.088 71.1989 436.378 70.8741 436.775 70.6321C437.173 70.3868 437.647 70.2642 438.197 70.2642C438.89 70.2642 439.455 70.4813 439.893 70.9155C440.333 71.3497 440.554 72.0043 440.554 72.8793V78H439.067V73.0185C439.067 72.5014 438.926 72.1269 438.645 71.8949C438.363 71.6629 438.027 71.5469 437.635 71.5469C437.152 71.5469 436.775 71.696 436.507 71.9943C436.238 72.2893 436.104 72.6688 436.104 73.1328V78H434.623V72.924C434.623 72.5097 434.493 72.1766 434.235 71.9247C433.976 71.6728 433.64 71.5469 433.226 71.5469C432.944 71.5469 432.684 71.6214 432.445 71.7706C432.21 71.9164 432.019 72.1203 431.873 72.3821C431.731 72.6439 431.66 72.9472 431.66 73.2919V78H430.173ZM445.837 78.1541C445.085 78.1541 444.437 77.9934 443.893 77.6719C443.353 77.3471 442.936 76.8913 442.641 76.3047C442.349 75.7147 442.203 75.0237 442.203 74.2315C442.203 73.4493 442.349 72.7599 442.641 72.1634C442.936 71.5668 443.347 71.1011 443.874 70.7663C444.404 70.4316 445.024 70.2642 445.733 70.2642C446.164 70.2642 446.581 70.3355 446.986 70.478C447.39 70.6205 447.753 70.8442 448.075 71.1491C448.396 71.4541 448.65 71.8501 448.835 72.3374C449.021 72.8213 449.114 73.4096 449.114 74.1023V74.6293H443.043V73.5156H447.657C447.657 73.1245 447.577 72.7782 447.418 72.4766C447.259 72.1716 447.036 71.9313 446.747 71.7557C446.462 71.58 446.127 71.4922 445.743 71.4922C445.325 71.4922 444.961 71.5949 444.649 71.8004C444.341 72.0026 444.102 72.2678 443.933 72.5959C443.768 72.9207 443.685 73.2737 443.685 73.6548V74.5249C443.685 75.0353 443.774 75.4695 443.953 75.8274C444.135 76.1854 444.389 76.4588 444.714 76.6477C445.039 76.8333 445.418 76.9261 445.852 76.9261C446.134 76.9261 446.391 76.8864 446.623 76.8068C446.855 76.724 447.055 76.6013 447.224 76.4389C447.393 76.2765 447.523 76.076 447.612 75.8374L449.019 76.0909C448.906 76.5052 448.704 76.8681 448.413 77.1797C448.124 77.4879 447.761 77.7282 447.324 77.9006C446.89 78.0696 446.394 78.1541 445.837 78.1541ZM452.249 73.4659V78H450.763V70.3636H452.19V71.6065H452.284C452.46 71.2022 452.735 70.8774 453.11 70.6321C453.487 70.3868 453.963 70.2642 454.536 70.2642C455.057 70.2642 455.512 70.3736 455.904 70.5923C456.295 70.8078 456.598 71.1293 456.813 71.5568C457.029 71.9844 457.137 72.513 457.137 73.1428V78H455.65V73.3217C455.65 72.7682 455.506 72.3357 455.218 72.0241C454.929 71.7093 454.533 71.5518 454.029 71.5518C453.685 71.5518 453.378 71.6264 453.11 71.7756C452.844 71.9247 452.634 72.1435 452.478 72.4318C452.326 72.7169 452.249 73.0616 452.249 73.4659ZM462.695 70.3636V71.5568H458.524V70.3636H462.695ZM459.642 68.5341H461.129V75.7578C461.129 76.0462 461.172 76.2633 461.258 76.4091C461.344 76.5516 461.455 76.6494 461.591 76.7024C461.73 76.7521 461.881 76.777 462.044 76.777C462.163 76.777 462.267 76.7687 462.357 76.7521C462.446 76.7356 462.516 76.7223 462.566 76.7124L462.834 77.9403C462.748 77.9735 462.625 78.0066 462.466 78.0398C462.307 78.0762 462.108 78.0961 461.869 78.0994C461.478 78.1061 461.114 78.0365 460.776 77.8906C460.438 77.7448 460.164 77.5194 459.955 77.2145C459.747 76.9096 459.642 76.5268 459.642 76.0661V68.5341Z" fill="#9E9E9E"/>
<path d="M164 36H220" stroke="#78ABF9" stroke-width="1.5" stroke-linecap="round"/>
<rect x="223.5" y="1.5" width="69" height="69" rx="34.5" stroke="#0C68F4" stroke-width="3"/>
<path d="M260 41.5H238C237.18 41.5 236.5 40.82 236.5 40V24C236.5 18.76 240.76 14.5 246 14.5H264C264.82 14.5 265.5 15.18 265.5 16V36C265.5 39.04 263.04 41.5 260 41.5ZM239.5 38.5H260C261.38 38.5 262.5 37.38 262.5 36V17.5H246C242.42 17.5 239.5 20.42 239.5 24V38.5Z" fill="#0C68F4"/>
<path d="M272 53.5H270C269.18 53.5 268.5 52.82 268.5 52C268.5 50.62 267.38 49.5 266 49.5C264.62 49.5 263.5 50.62 263.5 52C263.5 52.82 262.82 53.5 262 53.5H254C253.18 53.5 252.5 52.82 252.5 52C252.5 50.62 251.38 49.5 250 49.5C248.62 49.5 247.5 50.62 247.5 52C247.5 52.82 246.82 53.5 246 53.5H244C239.86 53.5 236.5 50.14 236.5 46V40C236.5 39.18 237.18 38.5 238 38.5H260C261.38 38.5 262.5 37.38 262.5 36V22C262.5 21.18 263.18 20.5 264 20.5H267.68C269.66 20.5 271.48 21.56 272.46 23.28L275.88 29.26C276.14 29.72 276.14 30.3 275.88 30.76C275.62 31.22 275.12 31.5 274.58 31.5H272C271.72 31.5 271.5 31.72 271.5 32V38C271.5 38.28 271.72 38.5 272 38.5H278C278.82 38.5 279.5 39.18 279.5 40V46C279.5 50.14 276.14 53.5 272 53.5ZM271.3 50.5H272C274.48 50.5 276.5 48.48 276.5 46V41.5H272C270.08 41.5 268.5 39.92 268.5 38V32C268.5 30.08 270.06 28.5 272 28.5L269.86 24.76C269.42 23.98 268.58 23.5 267.68 23.5H265.5V36C265.5 39.04 263.04 41.5 260 41.5H239.5V46C239.5 48.48 241.52 50.5 244 50.5H244.7C245.36 48.2 247.48 46.5 250 46.5C252.52 46.5 254.64 48.2 255.3 50.5H260.72C261.38 48.2 263.5 46.5 266.02 46.5C268.54 46.5 270.64 48.2 271.3 50.5Z" fill="#0C68F4"/>
<path d="M250 57.5C246.96 57.5 244.5 55.04 244.5 52C244.5 48.96 246.96 46.5 250 46.5C253.04 46.5 255.5 48.96 255.5 52C255.5 55.04 253.04 57.5 250 57.5ZM250 49.5C248.62 49.5 247.5 50.62 247.5 52C247.5 53.38 248.62 54.5 250 54.5C251.38 54.5 252.5 53.38 252.5 52C252.5 50.62 251.38 49.5 250 49.5Z" fill="#0C68F4"/>
<path d="M266 57.5C262.96 57.5 260.5 55.04 260.5 52C260.5 48.96 262.96 46.5 266 46.5C269.04 46.5 271.5 48.96 271.5 52C271.5 55.04 269.04 57.5 266 57.5ZM266 49.5C264.62 49.5 263.5 50.62 263.5 52C263.5 53.38 264.62 54.5 266 54.5C267.38 54.5 268.5 53.38 268.5 52C268.5 50.62 267.38 49.5 266 49.5Z" fill="#0C68F4"/>
<path d="M278 41.5H272C270.08 41.5 268.5 39.92 268.5 38V32C268.5 30.08 270.08 28.5 272 28.5H274.58C275.12 28.5 275.62 28.78 275.88 29.26L279.3 35.26C279.42 35.48 279.5 35.74 279.5 36V40C279.5 40.82 278.82 41.5 278 41.5ZM272 31.5C271.72 31.5 271.5 31.72 271.5 32V38C271.5 38.28 271.72 38.5 272 38.5H276.5V36.4L273.7 31.5H272Z" fill="#0C68F4"/>
<path d="M296 36H352" stroke="#9E9E9E" stroke-width="1.5" stroke-linecap="round"/>
<path d="M235.412 83.1293H233.861C233.801 82.7978 233.69 82.5062 233.528 82.2543C233.366 82.0024 233.167 81.7886 232.931 81.6129C232.696 81.4373 232.433 81.3047 232.141 81.2152C231.853 81.1257 231.546 81.081 231.221 81.081C230.634 81.081 230.109 81.2285 229.645 81.5234C229.184 81.8184 228.82 82.2509 228.551 82.821C228.286 83.3911 228.154 84.0871 228.154 84.9091C228.154 85.7377 228.286 86.437 228.551 87.0071C228.82 87.5772 229.186 88.008 229.65 88.2997C230.114 88.5914 230.636 88.7372 231.216 88.7372C231.538 88.7372 231.843 88.6941 232.131 88.608C232.423 88.5185 232.686 88.3875 232.921 88.2152C233.157 88.0429 233.356 87.8324 233.518 87.5838C233.684 87.3319 233.798 87.0436 233.861 86.7188L235.412 86.7237C235.329 87.2242 235.169 87.6849 234.93 88.1058C234.695 88.5234 234.391 88.8847 234.02 89.1896C233.652 89.4912 233.231 89.7249 232.757 89.8906C232.283 90.0563 231.766 90.1392 231.206 90.1392C230.325 90.1392 229.539 89.9304 228.85 89.5128C228.16 89.0919 227.617 88.4903 227.219 87.7081C226.825 86.9259 226.627 85.9929 226.627 84.9091C226.627 83.822 226.826 82.889 227.224 82.1101C227.622 81.3279 228.165 80.728 228.855 80.3104C229.544 79.8894 230.328 79.679 231.206 79.679C231.746 79.679 232.25 79.7569 232.718 79.9126C233.188 80.0651 233.611 80.2905 233.985 80.5888C234.36 80.8838 234.67 81.245 234.915 81.6726C235.16 82.0968 235.326 82.5824 235.412 83.1293ZM238.618 85.4659V90H237.131V79.8182H238.598V83.6065H238.692C238.871 83.1955 239.145 82.8691 239.513 82.6271C239.88 82.3852 240.361 82.2642 240.954 82.2642C241.478 82.2642 241.935 82.3719 242.326 82.5874C242.721 82.8028 243.026 83.1243 243.241 83.5518C243.46 83.9761 243.569 84.5064 243.569 85.1428V90H242.083V85.3217C242.083 84.7616 241.939 84.3274 241.65 84.0192C241.362 83.7076 240.961 83.5518 240.447 83.5518C240.096 83.5518 239.781 83.6264 239.503 83.7756C239.227 83.9247 239.01 84.1435 238.851 84.4318C238.696 84.7169 238.618 85.0616 238.618 85.4659ZM248.844 90.1541C248.092 90.1541 247.444 89.9934 246.9 89.6719C246.36 89.3471 245.942 88.8913 245.647 88.3047C245.356 87.7147 245.21 87.0237 245.21 86.2315C245.21 85.4493 245.356 84.7599 245.647 84.1634C245.942 83.5668 246.353 83.1011 246.88 82.7663C247.411 82.4316 248.031 82.2642 248.74 82.2642C249.171 82.2642 249.588 82.3355 249.993 82.478C250.397 82.6205 250.76 82.8442 251.081 83.1491C251.403 83.4541 251.656 83.8501 251.842 84.3374C252.028 84.8213 252.12 85.4096 252.12 86.1023V86.6293H246.05V85.5156H250.664C250.664 85.1245 250.584 84.7782 250.425 84.4766C250.266 84.1716 250.042 83.9313 249.754 83.7557C249.469 83.58 249.134 83.4922 248.75 83.4922C248.332 83.4922 247.968 83.5949 247.656 83.8004C247.348 84.0026 247.109 84.2678 246.94 84.5959C246.774 84.9207 246.691 85.2737 246.691 85.6548V86.5249C246.691 87.0353 246.781 87.4695 246.96 87.8274C247.142 88.1854 247.396 88.4588 247.721 88.6477C248.045 88.8333 248.425 88.9261 248.859 88.9261C249.141 88.9261 249.398 88.8864 249.63 88.8068C249.862 88.724 250.062 88.6013 250.231 88.4389C250.4 88.2765 250.53 88.076 250.619 87.8374L252.026 88.0909C251.913 88.5052 251.711 88.8681 251.419 89.1797C251.131 89.4879 250.768 89.7282 250.331 89.9006C249.897 90.0696 249.401 90.1541 248.844 90.1541ZM256.986 90.1541C256.247 90.1541 255.611 89.9867 255.077 89.652C254.547 89.3139 254.139 88.8482 253.854 88.255C253.569 87.6617 253.427 86.9822 253.427 86.2166C253.427 85.4411 253.573 84.7566 253.864 84.1634C254.156 83.5668 254.567 83.1011 255.097 82.7663C255.628 82.4316 256.252 82.2642 256.972 82.2642C257.552 82.2642 258.069 82.3719 258.523 82.5874C258.977 82.7995 259.343 83.0978 259.621 83.4822C259.903 83.8667 260.07 84.3158 260.123 84.8295H258.677C258.597 84.4716 258.415 84.1634 258.13 83.9048C257.848 83.6463 257.47 83.517 256.996 83.517C256.582 83.517 256.219 83.6264 255.908 83.8452C255.599 84.0606 255.359 84.3688 255.187 84.7699C255.014 85.1676 254.928 85.6383 254.928 86.1818C254.928 86.7386 255.013 87.2192 255.182 87.6236C255.351 88.0279 255.589 88.3411 255.898 88.5632C256.209 88.7853 256.575 88.8963 256.996 88.8963C257.278 88.8963 257.533 88.8449 257.762 88.7422C257.994 88.6361 258.188 88.4853 258.344 88.2898C258.503 88.0942 258.614 87.8589 258.677 87.5838H260.123C260.07 88.0777 259.91 88.5185 259.641 88.9062C259.373 89.294 259.013 89.599 258.562 89.821C258.115 90.0431 257.59 90.1541 256.986 90.1541ZM263.08 87.4098L263.07 85.5952H263.329L266.372 82.3636H268.151L264.681 86.0426H264.448L263.08 87.4098ZM261.713 90V79.8182H263.2V90H261.713ZM266.536 90L263.801 86.3707L264.825 85.3317L268.36 90H266.536ZM272.408 90.1541C271.692 90.1541 271.068 89.9901 270.534 89.6619C270 89.3338 269.586 88.8748 269.291 88.2848C268.996 87.6948 268.849 87.0054 268.849 86.2166C268.849 85.4245 268.996 84.7318 269.291 84.1385C269.586 83.5452 270 83.0845 270.534 82.7564C271.068 82.4283 271.692 82.2642 272.408 82.2642C273.124 82.2642 273.749 82.4283 274.283 82.7564C274.816 83.0845 275.23 83.5452 275.525 84.1385C275.82 84.7318 275.968 85.4245 275.968 86.2166C275.968 87.0054 275.82 87.6948 275.525 88.2848C275.23 88.8748 274.816 89.3338 274.283 89.6619C273.749 89.9901 273.124 90.1541 272.408 90.1541ZM272.413 88.9062C272.877 88.9062 273.262 88.7836 273.567 88.5384C273.872 88.2931 274.097 87.9666 274.243 87.5589C274.392 87.1513 274.467 86.7022 274.467 86.2116C274.467 85.7244 274.392 85.277 274.243 84.8693C274.097 84.4583 273.872 84.1286 273.567 83.88C273.262 83.6314 272.877 83.5071 272.413 83.5071C271.946 83.5071 271.558 83.6314 271.25 83.88C270.945 84.1286 270.718 84.4583 270.569 84.8693C270.423 85.277 270.35 85.7244 270.35 86.2116C270.35 86.7022 270.423 87.1513 270.569 87.5589C270.718 87.9666 270.945 88.2931 271.25 88.5384C271.558 88.7836 271.946 88.9062 272.413 88.9062ZM282.465 86.8331V82.3636H283.956V90H282.494V88.6776H282.415C282.239 89.0852 281.957 89.425 281.57 89.6967C281.185 89.9652 280.706 90.0994 280.133 90.0994C279.642 90.0994 279.208 89.9917 278.83 89.7763C278.456 89.5575 278.161 89.2344 277.945 88.8068C277.733 88.3793 277.627 87.8506 277.627 87.2209V82.3636H279.114V87.0419C279.114 87.5623 279.258 87.9766 279.546 88.2848C279.835 88.593 280.209 88.7472 280.67 88.7472C280.948 88.7472 281.225 88.6776 281.5 88.5384C281.778 88.3991 282.009 88.1887 282.191 87.907C282.377 87.6252 282.468 87.2673 282.465 86.8331ZM289.518 82.3636V83.5568H285.347V82.3636H289.518ZM286.465 80.5341H287.952V87.7578C287.952 88.0462 287.995 88.2633 288.081 88.4091C288.167 88.5516 288.278 88.6494 288.414 88.7024C288.554 88.7521 288.704 88.777 288.867 88.777C288.986 88.777 289.09 88.7687 289.18 88.7521C289.269 88.7356 289.339 88.7223 289.389 88.7124L289.657 89.9403C289.571 89.9735 289.448 90.0066 289.289 90.0398C289.13 90.0762 288.931 90.0961 288.693 90.0994C288.302 90.1061 287.937 90.0365 287.599 89.8906C287.261 89.7448 286.987 89.5194 286.779 89.2145C286.57 88.9096 286.465 88.5268 286.465 88.0661V80.5341Z" fill="#0C68F4"/>
<rect x="58" y="12" width="48" height="48" rx="24" fill="#78ABF9"/>
<path d="M82.0007 44.6667C78.8807 44.6667 76.334 42.12 76.334 39C76.334 38.4533 76.7873 38 77.334 38C77.8807 38 78.334 38.4533 78.334 39C78.334 41.0267 79.974 42.6667 82.0007 42.6667C84.0273 42.6667 85.6673 41.0267 85.6673 39C85.6673 38.4533 86.1207 38 86.6673 38C87.214 38 87.6673 38.4533 87.6673 39C87.6673 42.12 85.1207 44.6667 82.0007 44.6667Z" fill="white"/>
<path d="M72.9205 28.5066C72.6672 28.5066 72.4005 28.3999 72.2138 28.2133C71.8272 27.8266 71.8272 27.1866 72.2138 26.7999L77.0538 21.9599C77.4405 21.5733 78.0805 21.5733 78.4672 21.9599C78.8538 22.3466 78.8538 22.9866 78.4672 23.3733L73.6272 28.2133C73.4272 28.3999 73.1738 28.5066 72.9205 28.5066Z" fill="white"/>
<path d="M91.0808 28.5066C90.8275 28.5066 90.5741 28.4133 90.3741 28.2133L85.5341 23.3733C85.1475 22.9866 85.1475 22.3466 85.5341 21.9599C85.9208 21.5733 86.5608 21.5733 86.9475 21.9599L91.7875 26.7999C92.1741 27.1866 92.1741 27.8266 91.7875 28.2133C91.6008 28.3999 91.3341 28.5066 91.0808 28.5066Z" fill="white"/>
<path d="M92.946 34.1334C92.8527 34.1334 92.7593 34.1334 92.666 34.1334H92.3594H71.3327C70.3993 34.1467 69.3327 34.1467 68.5593 33.3734C67.946 32.7734 67.666 31.84 67.666 30.4667C67.666 26.8 70.346 26.8 71.626 26.8H92.3727C93.6527 26.8 96.3327 26.8 96.3327 30.4667C96.3327 31.8534 96.0527 32.7734 95.4394 33.3734C94.746 34.0667 93.8127 34.1334 92.946 34.1334ZM71.626 32.1334H92.6793C93.2794 32.1467 93.8393 32.1467 94.026 31.96C94.1194 31.8667 94.3193 31.5467 94.3193 30.4667C94.3193 28.96 93.946 28.8 92.3594 28.8H71.626C70.0393 28.8 69.666 28.96 69.666 30.4667C69.666 31.5467 69.8793 31.8667 69.9593 31.96C70.146 32.1334 70.7193 32.1334 71.306 32.1334H71.626Z" fill="white"/>
<path d="M85.8537 50.3333H77.8137C73.0403 50.3333 71.9737 47.4933 71.5603 45.0266L69.6803 33.4932C69.587 32.9466 69.9603 32.4399 70.507 32.3466C71.0403 32.2533 71.5603 32.6266 71.6537 33.1733L73.5337 44.6933C73.9203 47.0533 74.7203 48.3333 77.8137 48.3333H85.8537C89.2803 48.3333 89.667 47.1333 90.107 44.8133L92.347 33.1466C92.4537 32.5999 92.9737 32.2399 93.5203 32.3599C94.067 32.4666 94.4137 32.9866 94.307 33.5332L92.067 45.1999C91.547 47.9066 90.6803 50.3333 85.8537 50.3333Z" fill="white"/>
<path d="M108 36H164" stroke="#78ABF9" stroke-width="1.5" stroke-linecap="round"/>
<path d="M71.6399 82.1818C70.8217 82.1818 70.1172 81.9886 69.5263 81.6023C68.9354 81.2159 68.4808 80.6837 68.1626 80.0057C67.8445 79.3277 67.6854 78.553 67.6854 77.6818C67.6854 76.7955 67.8482 76.0133 68.174 75.3352C68.5036 74.6534 68.9619 74.1212 69.549 73.7386C70.1399 73.3523 70.8293 73.1591 71.6172 73.1591C72.2308 73.1591 72.7839 73.2727 73.2763 73.5C73.7687 73.7273 74.1721 74.0455 74.4865 74.4545C74.8009 74.8636 74.996 75.3409 75.0717 75.8864H73.7308C73.6286 75.4886 73.4013 75.1364 73.049 74.8295C72.7005 74.5189 72.2308 74.3636 71.6399 74.3636C71.1172 74.3636 70.6589 74.5 70.2649 74.7727C69.8748 75.0417 69.5698 75.4223 69.3501 75.9148C69.1342 76.4034 69.0263 76.9773 69.0263 77.6364C69.0263 78.3106 69.1323 78.8977 69.3445 79.3977C69.5604 79.8977 69.8634 80.286 70.2536 80.5625C70.6475 80.839 71.1096 80.9773 71.6399 80.9773C71.9884 80.9773 72.3047 80.9167 72.5888 80.7955C72.8729 80.6742 73.1134 80.5 73.3104 80.2727C73.5073 80.0455 73.6475 79.7727 73.7308 79.4545H75.0717C74.996 79.9697 74.8085 80.4337 74.5092 80.8466C74.2138 81.2557 73.8217 81.5814 73.3331 81.8239C72.8482 82.0625 72.2839 82.1818 71.6399 82.1818ZM79.6001 82.2045C79.0471 82.2045 78.5452 82.1004 78.0945 81.892C77.6437 81.6799 77.2857 81.375 77.0206 80.9773C76.7554 80.5758 76.6229 80.0909 76.6229 79.5227C76.6229 79.0227 76.7214 78.6174 76.9183 78.3068C77.1153 77.9924 77.3786 77.7462 77.7081 77.5682C78.0376 77.3902 78.4013 77.2576 78.799 77.1705C79.2005 77.0795 79.6039 77.0076 80.0092 76.9545C80.5395 76.8864 80.9695 76.8352 81.299 76.8011C81.6323 76.7633 81.8748 76.7008 82.0263 76.6136C82.1816 76.5265 82.2592 76.375 82.2592 76.1591V76.1136C82.2592 75.553 82.1058 75.1174 81.799 74.8068C81.496 74.4962 81.0357 74.3409 80.4183 74.3409C79.7782 74.3409 79.2763 74.4811 78.9126 74.7614C78.549 75.0417 78.2933 75.3409 78.1456 75.6591L76.8729 75.2045C77.1001 74.6742 77.4032 74.2614 77.782 73.9659C78.1645 73.6667 78.5812 73.4583 79.032 73.3409C79.4865 73.2197 79.9335 73.1591 80.3729 73.1591C80.6532 73.1591 80.9751 73.1932 81.3388 73.2614C81.7062 73.3258 82.0604 73.4602 82.4013 73.6648C82.746 73.8693 83.032 74.178 83.2592 74.5909C83.4865 75.0038 83.6001 75.5568 83.6001 76.25V82H82.2592V80.8182H82.1911C82.1001 81.0076 81.9486 81.2102 81.7365 81.4261C81.5244 81.642 81.2422 81.8258 80.8899 81.9773C80.5376 82.1288 80.1077 82.2045 79.6001 82.2045ZM79.8047 81C80.335 81 80.782 80.8958 81.1456 80.6875C81.513 80.4792 81.7895 80.2102 81.9751 79.8807C82.1645 79.5511 82.2592 79.2045 82.2592 78.8409V77.6136C82.2024 77.6818 82.0774 77.7443 81.8842 77.8011C81.6948 77.8542 81.4751 77.9015 81.2251 77.9432C80.9789 77.9811 80.7384 78.0152 80.5036 78.0455C80.2725 78.072 80.085 78.0947 79.9411 78.1136C79.5926 78.1591 79.2668 78.233 78.9638 78.3352C78.6645 78.4337 78.4221 78.5833 78.2365 78.7841C78.0547 78.9811 77.9638 79.25 77.9638 79.5909C77.9638 80.0568 78.1361 80.4091 78.4808 80.6477C78.8293 80.8826 79.2706 81 79.8047 81ZM86.0476 82V73.2727H87.343V74.5909H87.4339C87.593 74.1591 87.8809 73.8087 88.2976 73.5398C88.7143 73.2708 89.1839 73.1364 89.7067 73.1364C89.8052 73.1364 89.9283 73.1383 90.076 73.142C90.2237 73.1458 90.3355 73.1515 90.4112 73.1591V74.5227C90.3658 74.5114 90.2616 74.4943 90.0987 74.4716C89.9396 74.4451 89.7711 74.4318 89.593 74.4318C89.1688 74.4318 88.79 74.5208 88.4567 74.6989C88.1271 74.8731 87.8658 75.1155 87.6726 75.4261C87.4832 75.733 87.3885 76.0833 87.3885 76.4773V82H86.0476ZM96.343 73.2727V74.4091H91.8203V73.2727H96.343ZM93.1385 71.1818H94.4794V79.5C94.4794 79.8788 94.5343 80.1629 94.6442 80.3523C94.7578 80.5379 94.9018 80.6629 95.076 80.7273C95.254 80.7879 95.4415 80.8182 95.6385 80.8182C95.7862 80.8182 95.9074 80.8106 96.0021 80.7955C96.0968 80.7765 96.1726 80.7614 96.2294 80.75L96.5021 81.9545C96.4112 81.9886 96.2843 82.0227 96.1214 82.0568C95.9586 82.0947 95.7521 82.1136 95.5021 82.1136C95.1233 82.1136 94.7521 82.0322 94.3885 81.8693C94.0286 81.7064 93.7294 81.4583 93.4908 81.125C93.2559 80.7917 93.1385 80.3712 93.1385 79.8636V71.1818Z" fill="#78ABF9"/>
</svg>
