<svg width="516" height="100" viewBox="0 0 516 100" fill="none" xmlns="http://www.w3.org/2000/svg">
<path d="M352 36H408" stroke="#9E9E9E" stroke-width="1.5" stroke-linecap="round"/>
<rect x="410" y="12" width="48" height="48" rx="24" fill="#9E9E9E"/>
<path d="M447.333 32.3333H420.666C420.119 32.3333 419.666 31.8799 419.666 31.3333C419.666 30.7866 420.119 30.3333 420.666 30.3333H447.333C447.879 30.3333 448.333 30.7866 448.333 31.3333C448.333 31.8799 447.879 32.3333 447.333 32.3333Z" fill="white"/>
<path d="M428.667 43H426C425.453 43 425 42.5467 425 42C425 41.4533 425.453 41 426 41H428.667C429.213 41 429.667 41.4533 429.667 42C429.667 42.5467 429.213 43 428.667 43Z" fill="white"/>
<path d="M437.333 43H432C431.453 43 431 42.5467 431 42C431 41.4533 431.453 41 432 41H437.333C437.88 41 438.333 41.4533 438.333 42C438.333 42.5467 437.88 43 437.333 43Z" fill="white"/>
<path d="M441.413 48.3334H426.586C421.279 48.3334 419.666 46.7334 419.666 41.4801V30.5201C419.666 25.2667 421.279 23.6667 426.586 23.6667H441.399C446.706 23.6667 448.319 25.2667 448.319 30.5201V41.4667C448.333 46.7334 446.719 48.3334 441.413 48.3334ZM426.586 25.6667C422.399 25.6667 421.666 26.3867 421.666 30.5201V41.4667C421.666 45.6001 422.399 46.3201 426.586 46.3201H441.399C445.586 46.3201 446.319 45.6001 446.319 41.4667V30.5201C446.319 26.3867 445.586 25.6667 441.399 25.6667H426.586Z" fill="white"/>
<path d="M405.779 78V67.8182H409.408C410.2 67.8182 410.856 67.9624 411.377 68.2507C411.897 68.5391 412.287 68.9335 412.545 69.4339C412.804 69.9311 412.933 70.4912 412.933 71.1143C412.933 71.7408 412.802 72.3042 412.54 72.8047C412.282 73.3018 411.891 73.6963 411.367 73.9879C410.846 74.2763 410.192 74.4205 409.403 74.4205H406.907V73.1179H409.264C409.764 73.1179 410.17 73.0317 410.482 72.8594C410.793 72.6837 411.022 72.4451 411.168 72.1435C411.314 71.8419 411.387 71.4988 411.387 71.1143C411.387 70.7299 411.314 70.3885 411.168 70.0902C411.022 69.7919 410.792 69.5582 410.477 69.3892C410.165 69.2202 409.754 69.1357 409.244 69.1357H407.315V78H405.779ZM416.768 78.169C416.285 78.169 415.847 78.0795 415.456 77.9006C415.065 77.7183 414.755 77.4548 414.526 77.1101C414.301 76.7654 414.188 76.3428 414.188 75.8423C414.188 75.4115 414.271 75.0568 414.437 74.7784C414.603 74.5 414.826 74.2796 415.108 74.1172C415.39 73.9548 415.705 73.8321 416.053 73.7493C416.401 73.6664 416.755 73.6035 417.116 73.5604C417.574 73.5073 417.945 73.4643 418.23 73.4311C418.515 73.3946 418.722 73.3366 418.852 73.2571C418.981 73.1776 419.045 73.0483 419.045 72.8693V72.8345C419.045 72.4003 418.923 72.0639 418.678 71.8253C418.436 71.5866 418.074 71.4673 417.594 71.4673C417.093 71.4673 416.699 71.5784 416.411 71.8004C416.125 72.0192 415.928 72.2628 415.819 72.5312L414.422 72.2131C414.588 71.7491 414.83 71.3745 415.148 71.0895C415.469 70.8011 415.839 70.5923 416.256 70.4631C416.674 70.3305 417.113 70.2642 417.574 70.2642C417.879 70.2642 418.202 70.3007 418.543 70.3736C418.888 70.4432 419.21 70.5724 419.508 70.7614C419.809 70.9503 420.056 71.2204 420.249 71.5717C420.441 71.9197 420.537 72.3722 420.537 72.929V78H419.085V76.956H419.026C418.929 77.1482 418.785 77.3371 418.593 77.5227C418.401 77.7083 418.154 77.8625 417.852 77.9851C417.551 78.1077 417.189 78.169 416.768 78.169ZM417.092 76.9759C417.503 76.9759 417.854 76.8946 418.146 76.7322C418.441 76.5698 418.664 76.3577 418.817 76.0959C418.973 75.8307 419.05 75.5473 419.05 75.2457V74.2614C418.997 74.3144 418.895 74.3641 418.742 74.4105C418.593 74.4536 418.422 74.4917 418.23 74.5249C418.038 74.5547 417.851 74.5829 417.668 74.6094C417.486 74.6326 417.334 74.6525 417.211 74.669C416.923 74.7055 416.659 74.7668 416.42 74.853C416.185 74.9392 415.996 75.0634 415.854 75.2259C415.714 75.3849 415.645 75.5971 415.645 75.8622C415.645 76.2301 415.781 76.5085 416.053 76.6974C416.324 76.883 416.671 76.9759 417.092 76.9759ZM423.183 80.8636C422.961 80.8636 422.759 80.8454 422.577 80.8089C422.394 80.7758 422.258 80.7393 422.169 80.6996L422.527 79.4815C422.799 79.5545 423.041 79.5859 423.253 79.576C423.465 79.5661 423.652 79.4865 423.814 79.3374C423.98 79.1882 424.126 78.9446 424.252 78.6065L424.436 78.0994L421.642 70.3636H423.233L425.167 76.2898H425.246L427.18 70.3636H428.776L425.629 79.0192C425.483 79.4169 425.298 79.7533 425.072 80.0284C424.847 80.3068 424.578 80.5156 424.267 80.6548C423.955 80.794 423.594 80.8636 423.183 80.8636ZM430.173 78V70.3636H431.6V71.6065H431.694C431.854 71.1856 432.114 70.8575 432.475 70.6222C432.836 70.3835 433.269 70.2642 433.773 70.2642C434.283 70.2642 434.711 70.3835 435.055 70.6222C435.403 70.8608 435.66 71.1889 435.826 71.6065H435.905C436.088 71.1989 436.378 70.8741 436.775 70.6321C437.173 70.3868 437.647 70.2642 438.197 70.2642C438.89 70.2642 439.455 70.4813 439.893 70.9155C440.333 71.3497 440.554 72.0043 440.554 72.8793V78H439.067V73.0185C439.067 72.5014 438.926 72.1269 438.645 71.8949C438.363 71.6629 438.027 71.5469 437.635 71.5469C437.152 71.5469 436.775 71.696 436.507 71.9943C436.238 72.2893 436.104 72.6688 436.104 73.1328V78H434.623V72.924C434.623 72.5097 434.493 72.1766 434.235 71.9247C433.976 71.6728 433.64 71.5469 433.226 71.5469C432.944 71.5469 432.684 71.6214 432.445 71.7706C432.21 71.9164 432.019 72.1203 431.873 72.3821C431.731 72.6439 431.66 72.9472 431.66 73.2919V78H430.173ZM445.837 78.1541C445.085 78.1541 444.437 77.9934 443.893 77.6719C443.353 77.3471 442.936 76.8913 442.641 76.3047C442.349 75.7147 442.203 75.0237 442.203 74.2315C442.203 73.4493 442.349 72.7599 442.641 72.1634C442.936 71.5668 443.347 71.1011 443.874 70.7663C444.404 70.4316 445.024 70.2642 445.733 70.2642C446.164 70.2642 446.581 70.3355 446.986 70.478C447.39 70.6205 447.753 70.8442 448.075 71.1491C448.396 71.4541 448.65 71.8501 448.835 72.3374C449.021 72.8213 449.114 73.4096 449.114 74.1023V74.6293H443.043V73.5156H447.657C447.657 73.1245 447.577 72.7782 447.418 72.4766C447.259 72.1716 447.036 71.9313 446.747 71.7557C446.462 71.58 446.127 71.4922 445.743 71.4922C445.325 71.4922 444.961 71.5949 444.649 71.8004C444.341 72.0026 444.102 72.2678 443.933 72.5959C443.768 72.9207 443.685 73.2737 443.685 73.6548V74.5249C443.685 75.0353 443.774 75.4695 443.953 75.8274C444.135 76.1854 444.389 76.4588 444.714 76.6477C445.039 76.8333 445.418 76.9261 445.852 76.9261C446.134 76.9261 446.391 76.8864 446.623 76.8068C446.855 76.724 447.055 76.6013 447.224 76.4389C447.393 76.2765 447.523 76.076 447.612 75.8374L449.019 76.0909C448.906 76.5052 448.704 76.8681 448.413 77.1797C448.124 77.4879 447.761 77.7282 447.324 77.9006C446.89 78.0696 446.394 78.1541 445.837 78.1541ZM452.249 73.4659V78H450.763V70.3636H452.19V71.6065H452.284C452.46 71.2022 452.735 70.8774 453.11 70.6321C453.487 70.3868 453.963 70.2642 454.536 70.2642C455.057 70.2642 455.512 70.3736 455.904 70.5923C456.295 70.8078 456.598 71.1293 456.813 71.5568C457.029 71.9844 457.137 72.513 457.137 73.1428V78H455.65V73.3217C455.65 72.7682 455.506 72.3357 455.218 72.0241C454.929 71.7093 454.533 71.5518 454.029 71.5518C453.685 71.5518 453.378 71.6264 453.11 71.7756C452.844 71.9247 452.634 72.1435 452.478 72.4318C452.326 72.7169 452.249 73.0616 452.249 73.4659ZM462.695 70.3636V71.5568H458.524V70.3636H462.695ZM459.642 68.5341H461.129V75.7578C461.129 76.0462 461.172 76.2633 461.258 76.4091C461.344 76.5516 461.455 76.6494 461.591 76.7024C461.73 76.7521 461.881 76.777 462.044 76.777C462.163 76.777 462.267 76.7687 462.357 76.7521C462.446 76.7356 462.516 76.7223 462.566 76.7124L462.834 77.9403C462.748 77.9735 462.625 78.0066 462.466 78.0398C462.307 78.0762 462.108 78.0961 461.869 78.0994C461.478 78.1061 461.114 78.0365 460.776 77.8906C460.438 77.7448 460.164 77.5194 459.955 77.2145C459.747 76.9096 459.642 76.5268 459.642 76.0661V68.5341Z" fill="#9E9E9E"/>
<path d="M188 36H244" stroke="#9E9E9E" stroke-width="1.5" stroke-linecap="round"/>
<rect x="246" y="12" width="48" height="48" rx="24" fill="#9E9E9E"/>
<path d="M271.333 39.6667H256.666C256.119 39.6667 255.666 39.2134 255.666 38.6667V28.0001C255.666 24.5067 258.506 21.6667 261.999 21.6667H273.999C274.546 21.6667 274.999 22.1201 274.999 22.6667V36.0001C274.999 38.0267 273.359 39.6667 271.333 39.6667ZM257.666 37.6667H271.333C272.253 37.6667 272.999 36.9201 272.999 36.0001V23.6667H261.999C259.613 23.6667 257.666 25.6134 257.666 28.0001V37.6667Z" fill="white"/>
<path d="M279.333 47.6667H277.999C277.453 47.6667 276.999 47.2134 276.999 46.6667C276.999 45.7467 276.253 45.0001 275.333 45.0001C274.413 45.0001 273.666 45.7467 273.666 46.6667C273.666 47.2134 273.213 47.6667 272.666 47.6667H267.333C266.786 47.6667 266.333 47.2134 266.333 46.6667C266.333 45.7467 265.586 45.0001 264.666 45.0001C263.746 45.0001 262.999 45.7467 262.999 46.6667C262.999 47.2134 262.546 47.6667 261.999 47.6667H260.666C257.906 47.6667 255.666 45.4267 255.666 42.6667V38.6667C255.666 38.1201 256.119 37.6667 256.666 37.6667H271.333C272.253 37.6667 272.999 36.9201 272.999 36.0001V26.6667C272.999 26.1201 273.453 25.6667 273.999 25.6667H276.453C277.773 25.6667 278.986 26.3734 279.639 27.5201L281.919 31.5068C282.093 31.8134 282.093 32.2001 281.919 32.5068C281.746 32.8134 281.413 33.0001 281.053 33.0001H279.333C279.146 33.0001 278.999 33.1467 278.999 33.3334V37.3334C278.999 37.5201 279.146 37.6667 279.333 37.6667H283.333C283.879 37.6667 284.333 38.1201 284.333 38.6667V42.6667C284.333 45.4267 282.093 47.6667 279.333 47.6667ZM278.866 45.6667H279.333C280.986 45.6667 282.333 44.3201 282.333 42.6667V39.6667H279.333C278.053 39.6667 276.999 38.6134 276.999 37.3334V33.3334C276.999 32.0534 278.039 31.0001 279.333 31.0001L277.906 28.5068C277.613 27.9868 277.053 27.6667 276.453 27.6667H274.999V36.0001C274.999 38.0267 273.359 39.6667 271.333 39.6667H257.666V42.6667C257.666 44.3201 259.013 45.6667 260.666 45.6667H261.133C261.573 44.1334 262.986 43.0001 264.666 43.0001C266.346 43.0001 267.759 44.1334 268.199 45.6667H271.813C272.253 44.1334 273.666 43.0001 275.346 43.0001C277.026 43.0001 278.426 44.1334 278.866 45.6667Z" fill="white"/>
<path d="M264.667 50.3333C262.64 50.3333 261 48.6933 261 46.6667C261 44.64 262.64 43 264.667 43C266.693 43 268.333 44.64 268.333 46.6667C268.333 48.6933 266.693 50.3333 264.667 50.3333ZM264.667 45C263.747 45 263 45.7467 263 46.6667C263 47.5867 263.747 48.3333 264.667 48.3333C265.587 48.3333 266.333 47.5867 266.333 46.6667C266.333 45.7467 265.587 45 264.667 45Z" fill="white"/>
<path d="M275.333 50.3333C273.306 50.3333 271.666 48.6933 271.666 46.6667C271.666 44.64 273.306 43 275.333 43C277.359 43 278.999 44.64 278.999 46.6667C278.999 48.6933 277.359 50.3333 275.333 50.3333ZM275.333 45C274.413 45 273.666 45.7467 273.666 46.6667C273.666 47.5867 274.413 48.3333 275.333 48.3333C276.253 48.3333 276.999 47.5867 276.999 46.6667C276.999 45.7467 276.253 45 275.333 45Z" fill="white"/>
<path d="M283.333 39.6667H279.333C278.053 39.6667 277 38.6133 277 37.3333V33.3333C277 32.0533 278.053 31 279.333 31H281.053C281.413 31 281.747 31.1867 281.92 31.5067L284.2 35.5067C284.28 35.6533 284.333 35.8267 284.333 36V38.6667C284.333 39.2133 283.88 39.6667 283.333 39.6667ZM279.333 33C279.147 33 279 33.1467 279 33.3333V37.3333C279 37.52 279.147 37.6667 279.333 37.6667H282.333V36.2667L280.467 33H279.333Z" fill="white"/>
<path d="M296 36H352" stroke="#9E9E9E" stroke-width="1.5" stroke-linecap="round"/>
<path d="M247.412 71.1293H245.861C245.801 70.7978 245.69 70.5062 245.528 70.2543C245.366 70.0024 245.167 69.7886 244.931 69.6129C244.696 69.4373 244.433 69.3047 244.141 69.2152C243.853 69.1257 243.546 69.081 243.221 69.081C242.634 69.081 242.109 69.2285 241.645 69.5234C241.184 69.8184 240.82 70.2509 240.551 70.821C240.286 71.3911 240.154 72.0871 240.154 72.9091C240.154 73.7377 240.286 74.437 240.551 75.0071C240.82 75.5772 241.186 76.008 241.65 76.2997C242.114 76.5914 242.636 76.7372 243.216 76.7372C243.538 76.7372 243.843 76.6941 244.131 76.608C244.423 76.5185 244.686 76.3875 244.921 76.2152C245.157 76.0429 245.356 75.8324 245.518 75.5838C245.684 75.3319 245.798 75.0436 245.861 74.7188L247.412 74.7237C247.329 75.2242 247.169 75.6849 246.93 76.1058C246.695 76.5234 246.391 76.8847 246.02 77.1896C245.652 77.4912 245.231 77.7249 244.757 77.8906C244.283 78.0563 243.766 78.1392 243.206 78.1392C242.325 78.1392 241.539 77.9304 240.85 77.5128C240.16 77.0919 239.617 76.4903 239.219 75.7081C238.825 74.9259 238.627 73.9929 238.627 72.9091C238.627 71.822 238.826 70.889 239.224 70.1101C239.622 69.3279 240.165 68.728 240.855 68.3104C241.544 67.8894 242.328 67.679 243.206 67.679C243.746 67.679 244.25 67.7569 244.718 67.9126C245.188 68.0651 245.611 68.2905 245.985 68.5888C246.36 68.8838 246.67 69.245 246.915 69.6726C247.16 70.0968 247.326 70.5824 247.412 71.1293ZM250.618 73.4659V78H249.131V67.8182H250.598V71.6065H250.692C250.871 71.1955 251.145 70.8691 251.513 70.6271C251.88 70.3852 252.361 70.2642 252.954 70.2642C253.478 70.2642 253.935 70.3719 254.326 70.5874C254.721 70.8028 255.026 71.1243 255.241 71.5518C255.46 71.9761 255.569 72.5064 255.569 73.1428V78H254.083V73.3217C254.083 72.7616 253.939 72.3274 253.65 72.0192C253.362 71.7076 252.961 71.5518 252.447 71.5518C252.096 71.5518 251.781 71.6264 251.503 71.7756C251.227 71.9247 251.01 72.1435 250.851 72.4318C250.696 72.7169 250.618 73.0616 250.618 73.4659ZM260.844 78.1541C260.092 78.1541 259.444 77.9934 258.9 77.6719C258.36 77.3471 257.942 76.8913 257.647 76.3047C257.356 75.7147 257.21 75.0237 257.21 74.2315C257.21 73.4493 257.356 72.7599 257.647 72.1634C257.942 71.5668 258.353 71.1011 258.88 70.7663C259.411 70.4316 260.031 70.2642 260.74 70.2642C261.171 70.2642 261.588 70.3355 261.993 70.478C262.397 70.6205 262.76 70.8442 263.081 71.1491C263.403 71.4541 263.656 71.8501 263.842 72.3374C264.028 72.8213 264.12 73.4096 264.12 74.1023V74.6293H258.05V73.5156H262.664C262.664 73.1245 262.584 72.7782 262.425 72.4766C262.266 72.1716 262.042 71.9313 261.754 71.7557C261.469 71.58 261.134 71.4922 260.75 71.4922C260.332 71.4922 259.968 71.5949 259.656 71.8004C259.348 72.0026 259.109 72.2678 258.94 72.5959C258.774 72.9207 258.691 73.2737 258.691 73.6548V74.5249C258.691 75.0353 258.781 75.4695 258.96 75.8274C259.142 76.1854 259.396 76.4588 259.721 76.6477C260.045 76.8333 260.425 76.9261 260.859 76.9261C261.141 76.9261 261.398 76.8864 261.63 76.8068C261.862 76.724 262.062 76.6013 262.231 76.4389C262.4 76.2765 262.53 76.076 262.619 75.8374L264.026 76.0909C263.913 76.5052 263.711 76.8681 263.419 77.1797C263.131 77.4879 262.768 77.7282 262.331 77.9006C261.897 78.0696 261.401 78.1541 260.844 78.1541ZM268.986 78.1541C268.247 78.1541 267.611 77.9867 267.077 77.652C266.547 77.3139 266.139 76.8482 265.854 76.255C265.569 75.6617 265.427 74.9822 265.427 74.2166C265.427 73.4411 265.573 72.7566 265.864 72.1634C266.156 71.5668 266.567 71.1011 267.097 70.7663C267.628 70.4316 268.252 70.2642 268.972 70.2642C269.552 70.2642 270.069 70.3719 270.523 70.5874C270.977 70.7995 271.343 71.0978 271.621 71.4822C271.903 71.8667 272.07 72.3158 272.123 72.8295H270.677C270.597 72.4716 270.415 72.1634 270.13 71.9048C269.848 71.6463 269.47 71.517 268.996 71.517C268.582 71.517 268.219 71.6264 267.908 71.8452C267.599 72.0606 267.359 72.3688 267.187 72.7699C267.014 73.1676 266.928 73.6383 266.928 74.1818C266.928 74.7386 267.013 75.2192 267.182 75.6236C267.351 76.0279 267.589 76.3411 267.898 76.5632C268.209 76.7853 268.575 76.8963 268.996 76.8963C269.278 76.8963 269.533 76.8449 269.762 76.7422C269.994 76.6361 270.188 76.4853 270.344 76.2898C270.503 76.0942 270.614 75.8589 270.677 75.5838H272.123C272.07 76.0777 271.91 76.5185 271.641 76.9062C271.373 77.294 271.013 77.599 270.562 77.821C270.115 78.0431 269.59 78.1541 268.986 78.1541ZM275.08 75.4098L275.07 73.5952H275.329L278.372 70.3636H280.151L276.681 74.0426H276.448L275.08 75.4098ZM273.713 78V67.8182H275.2V78H273.713ZM278.536 78L275.801 74.3707L276.825 73.3317L280.36 78H278.536ZM284.408 78.1541C283.692 78.1541 283.068 77.9901 282.534 77.6619C282 77.3338 281.586 76.8748 281.291 76.2848C280.996 75.6948 280.849 75.0054 280.849 74.2166C280.849 73.4245 280.996 72.7318 281.291 72.1385C281.586 71.5452 282 71.0845 282.534 70.7564C283.068 70.4283 283.692 70.2642 284.408 70.2642C285.124 70.2642 285.749 70.4283 286.283 70.7564C286.816 71.0845 287.23 71.5452 287.525 72.1385C287.82 72.7318 287.968 73.4245 287.968 74.2166C287.968 75.0054 287.82 75.6948 287.525 76.2848C287.23 76.8748 286.816 77.3338 286.283 77.6619C285.749 77.9901 285.124 78.1541 284.408 78.1541ZM284.413 76.9062C284.877 76.9062 285.262 76.7836 285.567 76.5384C285.872 76.2931 286.097 75.9666 286.243 75.5589C286.392 75.1513 286.467 74.7022 286.467 74.2116C286.467 73.7244 286.392 73.277 286.243 72.8693C286.097 72.4583 285.872 72.1286 285.567 71.88C285.262 71.6314 284.877 71.5071 284.413 71.5071C283.946 71.5071 283.558 71.6314 283.25 71.88C282.945 72.1286 282.718 72.4583 282.569 72.8693C282.423 73.277 282.35 73.7244 282.35 74.2116C282.35 74.7022 282.423 75.1513 282.569 75.5589C282.718 75.9666 282.945 76.2931 283.25 76.5384C283.558 76.7836 283.946 76.9062 284.413 76.9062ZM294.465 74.8331V70.3636H295.956V78H294.494V76.6776H294.415C294.239 77.0852 293.957 77.425 293.57 77.6967C293.185 77.9652 292.706 78.0994 292.133 78.0994C291.642 78.0994 291.208 77.9917 290.83 77.7763C290.456 77.5575 290.161 77.2344 289.945 76.8068C289.733 76.3793 289.627 75.8506 289.627 75.2209V70.3636H291.114V75.0419C291.114 75.5623 291.258 75.9766 291.546 76.2848C291.835 76.593 292.209 76.7472 292.67 76.7472C292.948 76.7472 293.225 76.6776 293.5 76.5384C293.778 76.3991 294.009 76.1887 294.191 75.907C294.377 75.6252 294.468 75.2673 294.465 74.8331ZM301.518 70.3636V71.5568H297.347V70.3636H301.518ZM298.465 68.5341H299.952V75.7578C299.952 76.0462 299.995 76.2633 300.081 76.4091C300.167 76.5516 300.278 76.6494 300.414 76.7024C300.554 76.7521 300.704 76.777 300.867 76.777C300.986 76.777 301.09 76.7687 301.18 76.7521C301.269 76.7356 301.339 76.7223 301.389 76.7124L301.657 77.9403C301.571 77.9735 301.448 78.0066 301.289 78.0398C301.13 78.0762 300.931 78.0961 300.693 78.0994C300.302 78.1061 299.937 78.0365 299.599 77.8906C299.261 77.7448 298.987 77.5194 298.779 77.2145C298.57 76.9096 298.465 76.5268 298.465 76.0661V68.5341Z" fill="#9E9E9E"/>
<rect x="59.5" y="1.5" width="69" height="69" rx="34.5" stroke="#0C68F4" stroke-width="3"/>
<path d="M94 49C89.32 49 85.5 45.18 85.5 40.5C85.5 39.68 86.18 39 87 39C87.82 39 88.5 39.68 88.5 40.5C88.5 43.54 90.96 46 94 46C97.04 46 99.5 43.54 99.5 40.5C99.5 39.68 100.18 39 101 39C101.82 39 102.5 39.68 102.5 40.5C102.5 45.18 98.68 49 94 49Z" fill="#0C68F4"/>
<path d="M80.3798 24.7599C79.9998 24.7599 79.5998 24.5999 79.3198 24.3199C78.7398 23.7399 78.7398 22.7799 79.3198 22.1999L86.5798 14.9399C87.1598 14.3599 88.1198 14.3599 88.6998 14.9399C89.2798 15.5199 89.2798 16.4799 88.6998 17.0599L81.4398 24.3199C81.1398 24.5999 80.7598 24.7599 80.3798 24.7599Z" fill="#0C68F4"/>
<path d="M107.62 24.7599C107.24 24.7599 106.86 24.6199 106.56 24.3199L99.3002 17.0599C98.7202 16.4799 98.7202 15.5199 99.3002 14.9399C99.8802 14.3599 100.84 14.3599 101.42 14.9399L108.68 22.1999C109.26 22.7799 109.26 23.7399 108.68 24.3199C108.4 24.5999 108 24.7599 107.62 24.7599Z" fill="#0C68F4"/>
<path d="M110.42 33.2C110.28 33.2 110.14 33.2 110 33.2H109.54H78C76.6 33.22 75 33.22 73.84 32.06C72.92 31.16 72.5 29.76 72.5 27.7C72.5 22.2 76.52 22.2 78.44 22.2H109.56C111.48 22.2 115.5 22.2 115.5 27.7C115.5 29.78 115.08 31.16 114.16 32.06C113.12 33.1 111.72 33.2 110.42 33.2ZM78.44 30.2H110.02C110.92 30.22 111.76 30.22 112.04 29.94C112.18 29.8 112.48 29.32 112.48 27.7C112.48 25.44 111.92 25.2 109.54 25.2H78.44C76.06 25.2 75.5 25.44 75.5 27.7C75.5 29.32 75.82 29.8 75.94 29.94C76.22 30.2 77.08 30.2 77.96 30.2H78.44Z" fill="#0C68F4"/>
<path d="M99.7795 57.5H87.7195C80.5595 57.5 78.9595 53.24 78.3395 49.54L75.5195 32.24C75.3795 31.42 75.9395 30.66 76.7595 30.52C77.5595 30.38 78.3395 30.94 78.4795 31.76L81.2995 49.04C81.8795 52.58 83.0795 54.5 87.7195 54.5H99.7795C104.92 54.5 105.5 52.7 106.16 49.22L109.52 31.72C109.68 30.9 110.46 30.36 111.28 30.54C112.1 30.7 112.62 31.48 112.46 32.3L109.1 49.8C108.32 53.86 107.02 57.5 99.7795 57.5Z" fill="#0C68F4"/>
<path d="M132 36H188" stroke="#78ABF9" stroke-width="1.5" stroke-linecap="round"/>
<path d="M83.6399 94.1818C82.8217 94.1818 82.1172 93.9886 81.5263 93.6023C80.9354 93.2159 80.4808 92.6837 80.1626 92.0057C79.8445 91.3277 79.6854 90.553 79.6854 89.6818C79.6854 88.7955 79.8482 88.0133 80.174 87.3352C80.5036 86.6534 80.9619 86.1212 81.549 85.7386C82.1399 85.3523 82.8293 85.1591 83.6172 85.1591C84.2308 85.1591 84.7839 85.2727 85.2763 85.5C85.7687 85.7273 86.1721 86.0455 86.4865 86.4545C86.8009 86.8636 86.996 87.3409 87.0717 87.8864H85.7308C85.6286 87.4886 85.4013 87.1364 85.049 86.8295C84.7005 86.5189 84.2308 86.3636 83.6399 86.3636C83.1172 86.3636 82.6589 86.5 82.2649 86.7727C81.8748 87.0417 81.5698 87.4223 81.3501 87.9148C81.1342 88.4034 81.0263 88.9773 81.0263 89.6364C81.0263 90.3106 81.1323 90.8977 81.3445 91.3977C81.5604 91.8977 81.8634 92.286 82.2536 92.5625C82.6475 92.839 83.1096 92.9773 83.6399 92.9773C83.9884 92.9773 84.3047 92.9167 84.5888 92.7955C84.8729 92.6742 85.1134 92.5 85.3104 92.2727C85.5073 92.0455 85.6475 91.7727 85.7308 91.4545H87.0717C86.996 91.9697 86.8085 92.4337 86.5092 92.8466C86.2138 93.2557 85.8217 93.5814 85.3331 93.8239C84.8482 94.0625 84.2839 94.1818 83.6399 94.1818ZM91.6001 94.2045C91.0471 94.2045 90.5452 94.1004 90.0945 93.892C89.6437 93.6799 89.2857 93.375 89.0206 92.9773C88.7554 92.5758 88.6229 92.0909 88.6229 91.5227C88.6229 91.0227 88.7214 90.6174 88.9183 90.3068C89.1153 89.9924 89.3786 89.7462 89.7081 89.5682C90.0376 89.3902 90.4013 89.2576 90.799 89.1705C91.2005 89.0795 91.6039 89.0076 92.0092 88.9545C92.5395 88.8864 92.9695 88.8352 93.299 88.8011C93.6323 88.7633 93.8748 88.7008 94.0263 88.6136C94.1816 88.5265 94.2592 88.375 94.2592 88.1591V88.1136C94.2592 87.553 94.1058 87.1174 93.799 86.8068C93.496 86.4962 93.0357 86.3409 92.4183 86.3409C91.7782 86.3409 91.2763 86.4811 90.9126 86.7614C90.549 87.0417 90.2933 87.3409 90.1456 87.6591L88.8729 87.2045C89.1001 86.6742 89.4032 86.2614 89.782 85.9659C90.1645 85.6667 90.5812 85.4583 91.032 85.3409C91.4865 85.2197 91.9335 85.1591 92.3729 85.1591C92.6532 85.1591 92.9751 85.1932 93.3388 85.2614C93.7062 85.3258 94.0604 85.4602 94.4013 85.6648C94.746 85.8693 95.032 86.178 95.2592 86.5909C95.4865 87.0038 95.6001 87.5568 95.6001 88.25V94H94.2592V92.8182H94.1911C94.1001 93.0076 93.9486 93.2102 93.7365 93.4261C93.5244 93.642 93.2422 93.8258 92.8899 93.9773C92.5376 94.1288 92.1077 94.2045 91.6001 94.2045ZM91.8047 93C92.335 93 92.782 92.8958 93.1456 92.6875C93.513 92.4792 93.7895 92.2102 93.9751 91.8807C94.1645 91.5511 94.2592 91.2045 94.2592 90.8409V89.6136C94.2024 89.6818 94.0774 89.7443 93.8842 89.8011C93.6948 89.8542 93.4751 89.9015 93.2251 89.9432C92.9789 89.9811 92.7384 90.0152 92.5036 90.0455C92.2725 90.072 92.085 90.0947 91.9411 90.1136C91.5926 90.1591 91.2668 90.233 90.9638 90.3352C90.6645 90.4337 90.4221 90.5833 90.2365 90.7841C90.0547 90.9811 89.9638 91.25 89.9638 91.5909C89.9638 92.0568 90.1361 92.4091 90.4808 92.6477C90.8293 92.8826 91.2706 93 91.8047 93ZM98.0476 94V85.2727H99.343V86.5909H99.4339C99.593 86.1591 99.8809 85.8087 100.298 85.5398C100.714 85.2708 101.184 85.1364 101.707 85.1364C101.805 85.1364 101.928 85.1383 102.076 85.142C102.224 85.1458 102.335 85.1515 102.411 85.1591V86.5227C102.366 86.5114 102.262 86.4943 102.099 86.4716C101.94 86.4451 101.771 86.4318 101.593 86.4318C101.169 86.4318 100.79 86.5208 100.457 86.6989C100.127 86.8731 99.8658 87.1155 99.6726 87.4261C99.4832 87.733 99.3885 88.0833 99.3885 88.4773V94H98.0476ZM108.343 85.2727V86.4091H103.82V85.2727H108.343ZM105.138 83.1818H106.479V91.5C106.479 91.8788 106.534 92.1629 106.644 92.3523C106.758 92.5379 106.902 92.6629 107.076 92.7273C107.254 92.7879 107.442 92.8182 107.638 92.8182C107.786 92.8182 107.907 92.8106 108.002 92.7955C108.097 92.7765 108.173 92.7614 108.229 92.75L108.502 93.9545C108.411 93.9886 108.284 94.0227 108.121 94.0568C107.959 94.0947 107.752 94.1136 107.502 94.1136C107.123 94.1136 106.752 94.0322 106.388 93.8693C106.029 93.7064 105.729 93.4583 105.491 93.125C105.256 92.7917 105.138 92.3712 105.138 91.8636V83.1818Z" fill="#0C68F4"/>
</svg>
