<svg width="49" height="48" viewBox="0 0 49 48" fill="none" xmlns="http://www.w3.org/2000/svg">
<path d="M34.9803 45.5H14.0203C8.42035 45.5 4.86035 42.16 4.54035 36.58L3.50035 20.08C3.34035 17.58 4.20035 15.18 5.92035 13.36C7.62035 11.54 10.0203 10.5 12.5003 10.5C13.1403 10.5 13.7603 10.12 14.0603 9.52L15.5003 6.66C16.6803 4.32 19.6403 2.5 22.2203 2.5H26.8003C29.3803 2.5 32.3203 4.32 33.5003 6.64L34.9403 9.56C35.2403 10.12 35.8403 10.5 36.5003 10.5C38.9803 10.5 41.3803 11.54 43.0803 13.36C44.8003 15.2 45.6603 17.58 45.5003 20.08L44.4603 36.6C44.1003 42.26 40.6403 45.5 34.9803 45.5ZM22.2203 5.5C20.7403 5.5 18.8603 6.66 18.1803 8L16.7403 10.88C15.9003 12.5 14.2803 13.5 12.5003 13.5C10.8203 13.5 9.26035 14.18 8.10035 15.4C6.96035 16.62 6.38035 18.22 6.50035 19.88L7.54035 36.4C7.78035 40.44 9.96035 42.5 14.0203 42.5H34.9803C39.0203 42.5 41.2003 40.44 41.4603 36.4L42.5003 19.88C42.6003 18.22 42.0403 16.62 40.9003 15.4C39.7403 14.18 38.1803 13.5 36.5003 13.5C34.7203 13.5 33.1003 12.5 32.2603 10.92L30.8003 8C30.1403 6.68 28.2603 5.52 26.7803 5.52H22.2203V5.5Z" fill="#444444"/>
<path d="M27.5 17.5H21.5C20.68 17.5 20 16.82 20 16C20 15.18 20.68 14.5 21.5 14.5H27.5C28.32 14.5 29 15.18 29 16C29 16.82 28.32 17.5 27.5 17.5Z" fill="#444444"/>
<path d="M24.5 37.5C20.08 37.5 16.5 33.92 16.5 29.5C16.5 25.08 20.08 21.5 24.5 21.5C28.92 21.5 32.5 25.08 32.5 29.5C32.5 33.92 28.92 37.5 24.5 37.5ZM24.5 24.5C21.74 24.5 19.5 26.74 19.5 29.5C19.5 32.26 21.74 34.5 24.5 34.5C27.26 34.5 29.5 32.26 29.5 29.5C29.5 26.74 27.26 24.5 24.5 24.5Z" fill="#444444"/>
</svg>
