<svg width="48" height="48" viewBox="0 0 48 48" fill="none" xmlns="http://www.w3.org/2000/svg">
<path d="M40 29.5C36.96 29.5 34.5 27.04 34.5 24C34.5 20.96 36.96 18.5 40 18.5C43.04 18.5 45.5 20.96 45.5 24C45.5 27.04 43.04 29.5 40 29.5ZM40 21.5C38.62 21.5 37.5 22.62 37.5 24C37.5 25.38 38.62 26.5 40 26.5C41.38 26.5 42.5 25.38 42.5 24C42.5 22.62 41.38 21.5 40 21.5Z" fill="#444444"/>
<path d="M40 13.5C36.96 13.5 34.5 11.04 34.5 8C34.5 4.96 36.96 2.5 40 2.5C43.04 2.5 45.5 4.96 45.5 8C45.5 11.04 43.04 13.5 40 13.5ZM40 5.5C38.62 5.5 37.5 6.62 37.5 8C37.5 9.38 38.62 10.5 40 10.5C41.38 10.5 42.5 9.38 42.5 8C42.5 6.62 41.38 5.5 40 5.5Z" fill="#444444"/>
<path d="M40 45.5C36.96 45.5 34.5 43.04 34.5 40C34.5 36.96 36.96 34.5 40 34.5C43.04 34.5 45.5 36.96 45.5 40C45.5 43.04 43.04 45.5 40 45.5ZM40 37.5C38.62 37.5 37.5 38.62 37.5 40C37.5 41.38 38.62 42.5 40 42.5C41.38 42.5 42.5 41.38 42.5 40C42.5 38.62 41.38 37.5 40 37.5Z" fill="#444444"/>
<path d="M8 29.5C4.96 29.5 2.5 27.04 2.5 24C2.5 20.96 4.96 18.5 8 18.5C11.04 18.5 13.5 20.96 13.5 24C13.5 27.04 11.04 29.5 8 29.5ZM8 21.5C6.62 21.5 5.5 22.62 5.5 24C5.5 25.38 6.62 26.5 8 26.5C9.38 26.5 10.5 25.38 10.5 24C10.5 22.62 9.38 21.5 8 21.5Z" fill="#444444"/>
<path d="M36 25.5H12C11.18 25.5 10.5 24.82 10.5 24C10.5 23.18 11.18 22.5 12 22.5H36C36.82 22.5 37.5 23.18 37.5 24C37.5 24.82 36.82 25.5 36 25.5Z" fill="#444444"/>
<path d="M36 41.5H28C23.16 41.5 20.5 38.84 20.5 34V14C20.5 9.16 23.16 6.5 28 6.5H36C36.82 6.5 37.5 7.18 37.5 8C37.5 8.82 36.82 9.5 36 9.5H28C24.84 9.5 23.5 10.84 23.5 14V34C23.5 37.16 24.84 38.5 28 38.5H36C36.82 38.5 37.5 39.18 37.5 40C37.5 40.82 36.82 41.5 36 41.5Z" fill="#444444"/>
</svg>
