<svg width="49" height="48" viewBox="0 0 49 48" fill="none" xmlns="http://www.w3.org/2000/svg">
<path d="M24.4996 38.84C21.4196 38.84 18.3396 37.6599 15.9996 35.3199C11.2996 30.6199 11.2996 23 15.9996 18.3C18.2796 16.02 21.2996 14.78 24.4996 14.78C27.6996 14.78 30.7396 16.04 32.9996 18.3C37.6996 23 37.6996 30.6199 32.9996 35.3199C30.6596 37.6599 27.5796 38.84 24.4996 38.84ZM24.4996 17.8C22.0996 17.8 19.8196 18.7399 18.1196 20.4399C14.5996 23.9599 14.5996 29.68 18.1196 33.2C21.6396 36.72 27.3596 36.7 30.8796 33.2C34.3996 29.68 34.3996 23.9599 30.8796 20.4399C29.1796 18.7399 26.8996 17.8 24.4996 17.8Z" fill="#444444"/>
<path d="M21.3202 31.4999C20.9402 31.4999 20.5402 31.36 20.2602 31.06C19.6802 30.48 19.6802 29.52 20.2602 28.92L23.4402 25.7399C24.0202 25.1599 24.9802 25.1599 25.5802 25.7399C26.1602 26.3199 26.1602 27.2799 25.5802 27.8799L22.4002 31.06C22.0802 31.36 21.7002 31.4999 21.3202 31.4999Z" fill="#444444"/>
<path d="M38.0799 15.02C37.5999 15.02 37.1599 14.84 36.8199 14.5C36.1199 13.8 36.1199 12.66 36.8199 11.98C37.1599 11.64 37.5999 11.46 38.0799 11.46C38.5599 11.46 38.9999 11.64 39.3399 11.98C39.6799 12.32 39.8599 12.76 39.8599 13.24C39.8599 13.72 39.6799 14.16 39.3399 14.5C39.0199 14.84 38.5599 15.02 38.0799 15.02ZM37.9399 13.08V13.38C37.9799 13.42 38.0399 13.4399 38.0999 13.4399C38.3399 13.2999 38.3399 13.16 38.2399 13.08H37.9399Z" fill="#444444"/>
<path d="M38.0798 15.52C37.4598 15.52 36.8998 15.28 36.4598 14.84C35.5798 13.96 35.5798 12.5 36.4598 11.6C36.8998 11.16 37.4598 10.9399 38.0798 10.9399C38.6998 10.9399 39.2598 11.18 39.6998 11.62C40.1398 12.06 40.3598 12.62 40.3598 13.24C40.3598 13.86 40.1198 14.42 39.6798 14.86C39.2798 15.28 38.6998 15.52 38.0798 15.52ZM37.5798 13.74C37.7198 13.88 37.8998 13.9399 38.0798 13.9399C38.2598 13.9399 38.4398 13.86 38.5798 13.74C38.8598 13.46 38.8598 13.02 38.5798 12.74C38.3198 12.48 37.8398 12.48 37.5798 12.74C37.4598 12.86 37.3798 13.04 37.3798 13.24C37.3798 13.42 37.4398 13.6 37.5798 13.74Z" fill="#444444"/>
<path d="M10.9196 42.1802C10.4596 42.1802 9.99961 42.0002 9.65961 41.6602C9.31961 41.3202 9.13965 40.8601 9.13965 40.4001C9.13965 39.9201 9.31961 39.4801 9.65961 39.1401C9.99961 38.8001 10.4396 38.6201 10.9196 38.6201C11.3996 38.6201 11.8396 38.8001 12.1796 39.1401C12.8796 39.8401 12.8796 40.9802 12.1796 41.6602C11.8396 42.0002 11.3796 42.1802 10.9196 42.1802ZM10.8796 40.2001C10.8396 40.2001 10.7996 40.2201 10.7596 40.2601C10.6796 40.3401 10.6796 40.4802 10.7596 40.5602C10.7996 40.6002 10.8597 40.6201 10.8997 40.6201L11.0996 40.4202C11.0396 40.2402 10.9596 40.2001 10.8796 40.2001Z" fill="#444444"/>
<path d="M10.9201 42.6802C10.3401 42.6802 9.74011 42.4601 9.30011 42.0201C8.86011 41.5801 8.62012 41.0001 8.62012 40.4001C8.62012 39.7801 8.86011 39.2202 9.30011 38.7802C9.72011 38.3602 10.3001 38.1201 10.9201 38.1201C11.5401 38.1201 12.1001 38.3602 12.5401 38.8002C13.4401 39.7002 13.4401 41.1402 12.5401 42.0402C12.1001 42.4602 11.5001 42.6802 10.9201 42.6802ZM10.9201 39.6802C10.7401 39.6802 10.5601 39.7401 10.4201 39.8801C10.1401 40.1601 10.1401 40.6001 10.4201 40.8801C10.5601 41.0201 10.7401 41.0801 10.9201 41.0801C11.1001 41.0801 11.3001 41.0001 11.4201 40.8601C11.5401 40.7401 11.6201 40.5601 11.6201 40.3601C11.6201 40.1801 11.5401 39.9801 11.4201 39.8601C11.2801 39.7601 11.1001 39.6802 10.9201 39.6802Z" fill="#444444"/>
<path d="M43.7 28.6C43.24 28.6 42.78 28.42 42.44 28.08C41.74 27.38 41.74 26.24 42.44 25.54C42.78 25.2 43.24 25.12 43.7 25.02C44.18 25.02 44.6201 25.2 44.9601 25.54C45.6601 26.24 45.6601 27.38 44.9601 28.08C44.6201 28.42 44.16 28.6 43.7 28.6ZM43.56 26.96C43.6 27 43.66 27.02 43.72 27.02C43.94 26.88 43.94 26.74 43.86 26.66C43.78 26.58 43.64 26.58 43.56 26.66C43.48 26.74 43.48 26.88 43.56 26.96Z" fill="#444444"/>
<path d="M43.7003 29.1C43.1203 29.1 42.5203 28.8799 42.0803 28.4399C41.1803 27.5399 41.1803 26.1 42.0803 25.2C42.5203 24.76 43.0803 24.52 43.7003 24.52C44.3203 24.52 44.8803 24.76 45.3203 25.2C46.2203 26.1 46.2203 27.5399 45.3203 28.4399C44.8803 28.8799 44.3003 29.1 43.7003 29.1ZM43.2003 27.3199C43.3403 27.4599 43.5203 27.52 43.7003 27.52C43.8803 27.52 44.0603 27.4399 44.2003 27.3199C44.4803 27.0399 44.4803 26.5999 44.2003 26.3199C43.9203 26.0399 43.4803 26.0399 43.2003 26.3199C42.9403 26.5799 42.9203 27.0399 43.2003 27.3199Z" fill="#444444"/>
<path d="M5.29966 28.6001C4.83966 28.6001 4.37965 28.4201 4.03965 28.0801C3.33965 27.3801 3.33965 26.2401 4.03965 25.5401C4.73965 24.8401 5.87969 24.8401 6.57969 25.5401C7.27969 26.2401 7.27969 27.3801 6.57969 28.0801C6.19969 28.4201 5.73966 28.6001 5.29966 28.6001ZM5.13969 26.9601C5.21969 27.0401 5.35967 27.0401 5.43967 26.9601C5.51967 26.8801 5.51967 26.7401 5.43967 26.6601C5.35967 26.5801 5.21969 26.5801 5.13969 26.6601C5.05969 26.7401 5.05969 26.8801 5.13969 26.9601Z" fill="#444444"/>
<path d="M5.29988 29.1C4.71988 29.1 4.11988 28.88 3.67988 28.44C2.77988 27.54 2.77988 26.1 3.67988 25.2C4.57988 24.3 6.03987 24.32 6.91987 25.2C7.81987 26.1 7.81987 27.54 6.91987 28.44C6.45987 28.88 5.87988 29.1 5.29988 29.1ZM4.77992 27.32C5.05992 27.6 5.49992 27.6 5.77992 27.32C6.05992 27.04 6.05992 26.58 5.77992 26.32C5.49992 26.04 5.05992 26.04 4.77992 26.32C4.51992 26.58 4.51992 27.04 4.77992 27.32Z" fill="#444444"/>
<path d="M38.0799 42.18C37.6199 42.18 37.1599 42 36.8199 41.66C36.1199 40.96 36.1199 39.82 36.8199 39.12C37.5199 38.42 38.6599 38.42 39.3599 39.12C39.6999 39.46 39.8799 39.9 39.8799 40.38C39.8799 40.86 39.6999 41.3 39.3599 41.64C38.9999 42 38.5399 42.18 38.0799 42.18ZM38.0799 40.18C38.0199 40.18 37.9799 40.2 37.9399 40.24V40.54C38.0199 40.62 38.1599 40.62 38.2399 40.54C38.3199 40.46 38.3199 40.32 38.2399 40.24C38.1799 40.2 38.1399 40.18 38.0799 40.18Z" fill="#444444"/>
<path d="M38.0802 42.68C37.5002 42.68 36.9002 42.46 36.4602 42.02C35.5602 41.12 35.5602 39.68 36.4602 38.78C37.3602 37.88 38.8001 37.88 39.7001 38.78C40.1401 39.22 40.3801 39.78 40.3801 40.4C40.3801 41.02 40.1401 41.58 39.7001 42.02C39.2601 42.46 38.6602 42.68 38.0802 42.68ZM37.5802 40.9C37.8602 41.18 38.3002 41.18 38.5802 40.9C38.8602 40.62 38.8602 40.18 38.5802 39.9C38.3002 39.62 37.8602 39.62 37.5802 39.9C37.4402 40.04 37.3801 40.22 37.3801 40.4C37.3801 40.58 37.4402 40.76 37.5802 40.9Z" fill="#444444"/>
<path d="M10.9196 15.02C10.4396 15.02 9.99961 14.84 9.65961 14.5C9.31961 14.16 9.13965 13.72 9.13965 13.24C9.13965 12.76 9.31961 12.32 9.65961 11.98C9.99961 11.64 10.4396 11.46 10.9196 11.46C11.3996 11.46 11.8396 11.64 12.1796 11.98C12.8796 12.68 12.8796 13.82 12.1796 14.52C11.8396 14.84 11.3996 15.02 10.9196 15.02ZM10.7596 13.38C10.7996 13.42 10.8597 13.4399 10.8997 13.4399L11.0996 13.24L10.8997 13.04C10.6797 13.16 10.6796 13.3 10.7596 13.38Z" fill="#444444"/>
<path d="M10.9196 15.52C10.2996 15.52 9.73962 15.28 9.29962 14.84C8.87962 14.42 8.63965 13.84 8.63965 13.22C8.63965 12.6 8.87964 12.04 9.31964 11.6C9.73964 11.18 10.3196 10.9399 10.9396 10.9399C11.5596 10.9399 12.1196 11.18 12.5596 11.62C13.4396 12.52 13.4396 13.96 12.5596 14.86C12.0996 15.28 11.5396 15.52 10.9196 15.52ZM10.4196 13.74C10.5596 13.88 10.7396 13.96 10.9196 13.96C11.0996 13.96 11.2796 13.88 11.4196 13.76C11.5596 13.64 11.6196 13.44 11.6196 13.26C11.6196 13.08 11.5397 12.88 11.3997 12.76C11.1597 12.5 10.6597 12.5 10.3997 12.76C10.1397 13 10.1396 13.46 10.4196 13.74Z" fill="#444444"/>
<path d="M24.4998 9.4C24.0198 9.4 23.5797 9.21998 23.2397 8.87998C22.8997 8.53998 22.7197 8.09997 22.7197 7.61997C22.7197 7.13997 22.8997 6.69996 23.2397 6.35996C23.9397 5.65996 25.0798 5.65996 25.7798 6.35996C26.4798 7.05996 26.4798 8.19998 25.7798 8.87998C25.4398 9.19998 24.9798 9.4 24.4998 9.4ZM24.6398 7.45994L24.3398 7.75999C24.4198 7.83999 24.5598 7.83999 24.6398 7.75999V7.45994ZM24.3597 7.45994C24.2797 7.53994 24.2797 7.67999 24.3597 7.75999L24.6597 7.45994H24.3597Z" fill="#444444"/>
<path d="M24.4998 9.89998C23.8798 9.89998 23.3198 9.65992 22.8798 9.21992C22.4598 8.79992 22.2197 8.21993 22.2197 7.59993C22.2197 6.97993 22.4598 6.41993 22.8998 5.97993C23.7998 5.07993 25.2398 5.07993 26.1398 5.97993C27.0198 6.87993 27.0198 8.31992 26.1398 9.21992C25.6998 9.65992 25.1198 9.89998 24.4998 9.89998ZM24.9998 7.09993L23.9998 8.09993C24.2798 8.37993 24.7198 8.37993 24.9998 8.09993C25.1398 7.95993 25.1998 7.77993 25.1998 7.59993C25.1998 7.41993 25.1398 7.23993 24.9998 7.09993ZM24.4998 6.89998C24.3198 6.89998 24.1198 6.97995 23.9998 7.11995C23.7198 7.39995 23.7198 7.83995 23.9998 8.11995L24.9998 7.11995C24.8798 6.97995 24.6998 6.89998 24.4998 6.89998Z" fill="#444444"/>
</svg>
