<svg width="49" height="48" viewBox="0 0 49 48" fill="none" xmlns="http://www.w3.org/2000/svg">
<path d="M30.5 45.5H18.5C9.68 45.5 7 42.82 7 34V14C7 5.18 9.68 2.5 18.5 2.5H30.5C39.32 2.5 42 5.18 42 14V34C42 42.82 39.32 45.5 30.5 45.5ZM18.5 5.5C11.34 5.5 10 6.86 10 14V34C10 41.14 11.34 42.5 18.5 42.5H30.5C37.66 42.5 39 41.14 39 34V14C39 6.86 37.66 5.5 30.5 5.5H18.5Z" fill="#444444"/>
<path d="M28.5 12.5H20.5C19.68 12.5 19 11.82 19 11C19 10.18 19.68 9.5 20.5 9.5H28.5C29.32 9.5 30 10.18 30 11C30 11.82 29.32 12.5 28.5 12.5Z" fill="#444444"/>
<path d="M24.5004 39.72C21.9604 39.72 19.9004 37.66 19.9004 35.12C19.9004 32.58 21.9604 30.52 24.5004 30.52C27.0404 30.52 29.1004 32.58 29.1004 35.12C29.1004 37.66 27.0404 39.72 24.5004 39.72ZM24.5004 33.5C23.6204 33.5 22.9004 34.22 22.9004 35.1C22.9004 35.98 23.6204 36.7 24.5004 36.7C25.3804 36.7 26.1004 35.98 26.1004 35.1C26.1004 34.22 25.3804 33.5 24.5004 33.5Z" fill="#444444"/>
</svg>
