<svg width="48" height="48" viewBox="0 0 48 48" fill="none" xmlns="http://www.w3.org/2000/svg">
<path d="M35.12 35.94H12.88C4.92 35.94 2.5 33.52 2.5 25.56V12.88C2.5 4.92 4.92 2.5 12.88 2.5H35.1C43.06 2.5 45.48 4.92 45.48 12.88V25.54C45.5 33.52 43.08 35.94 35.12 35.94ZM12.88 5.5C6.6 5.5 5.5 6.6 5.5 12.88V25.54C5.5 31.82 6.6 32.92 12.88 32.92H35.1C41.38 32.92 42.48 31.82 42.48 25.54V12.88C42.48 6.6 41.38 5.5 35.1 5.5H12.88V5.5Z" fill="#444444"/>
<path d="M24 45.4999C23.18 45.4999 22.5 44.8199 22.5 43.9999V34.4399C22.5 33.6199 23.18 32.9399 24 32.9399C24.82 32.9399 25.5 33.6199 25.5 34.4399V43.9999C25.5 44.8199 24.82 45.4999 24 45.4999Z" fill="#444444"/>
<path d="M44 27.5H4C3.18 27.5 2.5 26.82 2.5 26C2.5 25.18 3.18 24.5 4 24.5H44C44.82 24.5 45.5 25.18 45.5 26C45.5 26.82 44.82 27.5 44 27.5Z" fill="#444444"/>
<path d="M33 45.5H15C14.18 45.5 13.5 44.82 13.5 44C13.5 43.18 14.18 42.5 15 42.5H33C33.82 42.5 34.5 43.18 34.5 44C34.5 44.82 33.82 45.5 33 45.5Z" fill="#444444"/>
</svg>
