<svg width="48" height="48" viewBox="0 0 48 48" fill="none" xmlns="http://www.w3.org/2000/svg">
<path d="M31 39.5H17C11.52 39.5 8.5 36.48 8.5 31V17C8.5 11.52 11.52 8.5 17 8.5H31C36.48 8.5 39.5 11.52 39.5 17V31C39.5 36.48 36.48 39.5 31 39.5ZM17 11.5C13.14 11.5 11.5 13.14 11.5 17V31C11.5 34.86 13.14 36.5 17 36.5H31C34.86 36.5 36.5 34.86 36.5 31V17C36.5 13.14 34.86 11.5 31 11.5H17Z" fill="#444444"/>
<path d="M32 5.5H16C15.18 5.5 14.5 4.82 14.5 4C14.5 3.18 15.18 2.5 16 2.5H32C32.82 2.5 33.5 3.18 33.5 4C33.5 4.82 32.82 5.5 32 5.5Z" fill="#444444"/>
<path d="M32 45.5H16C15.18 45.5 14.5 44.82 14.5 44C14.5 43.18 15.18 42.5 16 42.5H32C32.82 42.5 33.5 43.18 33.5 44C33.5 44.82 32.82 45.5 32 45.5Z" fill="#444444"/>
<path d="M24 29.5C23.18 29.5 22.5 28.82 22.5 28V20C22.5 19.18 23.18 18.5 24 18.5C24.82 18.5 25.5 19.18 25.5 20V28C25.5 28.84 24.82 29.5 24 29.5Z" fill="#444444"/>
<path d="M30 29.5C29.18 29.5 28.5 28.82 28.5 28V24C28.5 23.18 29.18 22.5 30 22.5C30.82 22.5 31.5 23.18 31.5 24V28C31.5 28.84 30.84 29.5 30 29.5Z" fill="#444444"/>
<path d="M18 29.5C17.18 29.5 16.5 28.82 16.5 28V26C16.5 25.18 17.18 24.5 18 24.5C18.82 24.5 19.5 25.18 19.5 26V28C19.5 28.84 18.82 29.5 18 29.5Z" fill="#444444"/>
</svg>
